<mxfile host="Electron" modified="2023-04-08T13:24:36.839Z" agent="Mozilla/5.0 (X11; Linux x86_64) AppleWebKit/537.36 (KHTML, like Gecko) draw.io/21.1.2 Chrome/106.0.5249.199 Electron/21.4.3 Safari/537.36" etag="nKfrgEx2kGtEzh1Mn3hm" version="21.1.2" type="device">
  <diagram id="0d7cefc2-ccd6-e077-73ed-a8e48b0cddf6" name="Page-1">
    <mxGraphModel dx="2792" dy="2440" grid="1" gridSize="10" guides="1" tooltips="1" connect="1" arrows="1" fold="1" page="1" pageScale="1" pageWidth="1169" pageHeight="827" background="#ffffff" math="0" shadow="0">
      <root>
        <mxCell id="0" />
        <mxCell id="1" parent="0" />
        <mxCell id="zWHwjysgA1_sXkl13r-_-72" value="" style="rounded=1;whiteSpace=wrap;html=1;glass=0;labelBackgroundColor=none;sketch=0;strokeWidth=3;gradientColor=none;fontColor=#F9895C;fillColor=none;strokeColor=#545A5E;perimeterSpacing=0;arcSize=8;fontStyle=0" parent="1" vertex="1">
          <mxGeometry x="110" y="-50" width="1290" height="430" as="geometry" />
        </mxCell>
        <mxCell id="aZOu54mgNPIQ95392Zl_-42" value="" style="rounded=1;whiteSpace=wrap;html=1;glass=0;labelBackgroundColor=none;sketch=0;strokeWidth=3;gradientColor=none;fontColor=#F9895C;fillColor=none;strokeColor=#545A5E;perimeterSpacing=0;arcSize=8;fontStyle=0" parent="1" vertex="1">
          <mxGeometry x="1070" y="40" width="300" height="320" as="geometry" />
        </mxCell>
        <mxCell id="aZOu54mgNPIQ95392Zl_-23" value="" style="rounded=1;whiteSpace=wrap;html=1;glass=0;labelBackgroundColor=none;sketch=0;strokeWidth=3;gradientColor=none;fontColor=#F9895C;fillColor=none;strokeColor=#545A5E;perimeterSpacing=0;arcSize=8;fontStyle=0" parent="1" vertex="1">
          <mxGeometry x="141" y="34" width="320" height="320" as="geometry" />
        </mxCell>
        <mxCell id="zWHwjysgA1_sXkl13r-_-73" value="&lt;font face=&quot;Quantum&quot; color=&quot;#65bcd8&quot; style=&quot;font-size: 19px&quot;&gt;DOCUMENTATION ARCHITECTURE&lt;/font&gt;" style="rounded=0;whiteSpace=wrap;html=1;fillColor=#FFFFFF;strokeColor=none;fontColor=#F8D643;fontStyle=0" parent="1" vertex="1">
          <mxGeometry x="170" y="-67" width="401" height="34.21" as="geometry" />
        </mxCell>
        <mxCell id="zWHwjysgA1_sXkl13r-_-119" value="" style="group;fontStyle=0" parent="1" vertex="1" connectable="0">
          <mxGeometry x="540" y="213" width="147" height="140" as="geometry" />
        </mxCell>
        <mxCell id="zWHwjysgA1_sXkl13r-_-120" value="&lt;h3&gt;&lt;br&gt;&lt;/h3&gt;" style="text;html=1;strokeColor=none;fillColor=none;align=center;verticalAlign=middle;whiteSpace=wrap;rounded=0;labelBackgroundColor=none;fontColor=#F8D643;fontFamily=Quantum;fontStyle=0" parent="zWHwjysgA1_sXkl13r-_-119" vertex="1">
          <mxGeometry x="30" y="26.923076923076923" width="40" height="21.538461538461537" as="geometry" />
        </mxCell>
        <mxCell id="zWHwjysgA1_sXkl13r-_-121" value="" style="group;fontStyle=0" parent="zWHwjysgA1_sXkl13r-_-119" vertex="1" connectable="0">
          <mxGeometry width="147" height="140" as="geometry" />
        </mxCell>
        <mxCell id="zWHwjysgA1_sXkl13r-_-122" value="" style="rounded=1;whiteSpace=wrap;html=1;strokeWidth=3;gradientDirection=south;gradientColor=#F9895C;fillColor=#65BCD8;strokeColor=#545A5E;glass=0;sketch=0;fontStyle=0" parent="zWHwjysgA1_sXkl13r-_-121" vertex="1">
          <mxGeometry x="-10" width="150" height="140" as="geometry" />
        </mxCell>
        <mxCell id="zWHwjysgA1_sXkl13r-_-124" value="&lt;h3&gt;&lt;span style=&quot;font-weight: normal&quot;&gt;&lt;font style=&quot;font-size: 19px&quot;&gt;MYST&lt;br&gt;PARSER&lt;/font&gt;&lt;/span&gt;&lt;/h3&gt;" style="text;html=1;strokeColor=none;fillColor=none;align=center;verticalAlign=middle;whiteSpace=wrap;rounded=0;labelBackgroundColor=none;fontColor=#F8D643;fontFamily=Quantum;fontStyle=0" parent="zWHwjysgA1_sXkl13r-_-121" vertex="1">
          <mxGeometry x="10" y="102.31" width="110" height="21.54" as="geometry" />
        </mxCell>
        <mxCell id="aZOu54mgNPIQ95392Zl_-46" value="" style="ellipse;whiteSpace=wrap;html=1;aspect=fixed;strokeWidth=4;strokeColor=#F9895C;fontStyle=0" parent="zWHwjysgA1_sXkl13r-_-121" vertex="1">
          <mxGeometry x="31" y="13" width="68" height="68" as="geometry" />
        </mxCell>
        <mxCell id="aZOu54mgNPIQ95392Zl_-47" value="" style="shape=image;verticalLabelPosition=bottom;labelBackgroundColor=default;verticalAlign=top;aspect=fixed;imageAspect=0;image=data:image/svg+xml,PHN2ZyB4bWxucz0iaHR0cDovL3d3dy53My5vcmcvMjAwMC9zdmciIHZpZXdCb3g9IjAgMCA4MS43OCA3My45IiBkYXRhLW5hbWU9IkxheWVyIDEiIGlkPSJMYXllcl8xIj48ZGVmcz48c3R5bGU+LmNscy0xe2ZpbGw6IzYxNjE2MTt9LmNscy0ye2ZpbGw6I2YzNzcyNjt9PC9zdHlsZT48L2RlZnM+PHRpdGxlPkFydGJvYXJkIDQ8L3RpdGxlPjxwYXRoIGQ9Ik0xNC42Niw0MS43VjM4LjA5bDQuNjctLjc5VjQuNDRsLTQuNjctLjhWMGgxMi4yTDQwLjMsMzEuNjZoLjE3TDUzLjQ3LDBINjYuMDVWMy42NGwtNC42Ny44VjM3LjNsNC42Ny43OVY0MS43aC0xNVYzOC4wOUw1NiwzNy4zVjcuN2wtLjE1LDBMNDIuMyw0MC4yMkgzOC41NWwtMTQtMzIuNDktLjE0LDAsLjE4LDE3LjQzVjM3LjNsNS4wNS43OVY0MS43WiIgY2xhc3M9ImNscy0xIi8+PHBhdGggZD0iTTM3Ljg4LDczLjlxMC04LjgyLTEwLjEzLTguODJIMTkuMzNxLTcuODMsMC0xMi41My0zLjc5VDAsNTAuMjVsNC44LTEuNjNxMi43LDguNDYsMTMuNzgsOC43NWg5LjE3cTkuNjMsMCwxMy4xMyw3LjUzUTQ0LjMsNTcuMzcsNTQsNTcuMzdoOC40NXExMS43NiwwLDE0LjU1LTguNzJsNC43OCwxLjZRNzkuNzEsNTcuNjEsNzUsNjEuMzNUNjIuNjMsNjUuMDhINTMuODhxLTEwLDAtMTAsOC44MiIgY2xhc3M9ImNscy0yIi8+PC9zdmc+;" parent="zWHwjysgA1_sXkl13r-_-121" vertex="1">
          <mxGeometry x="38.5" y="23.080000000000002" width="53" height="47.83" as="geometry" />
        </mxCell>
        <mxCell id="zWHwjysgA1_sXkl13r-_-245" value="&lt;font style=&quot;font-size: 27px&quot; face=&quot;Quantum&quot;&gt;LEGEND&lt;/font&gt;" style="text;html=1;strokeColor=none;fillColor=none;align=center;verticalAlign=middle;whiteSpace=wrap;rounded=0;fontColor=#F9895C;fontSize=18;" parent="1" vertex="1">
          <mxGeometry x="141" y="420" width="40" height="20" as="geometry" />
        </mxCell>
        <mxCell id="zWHwjysgA1_sXkl13r-_-253" value="" style="endArrow=classic;html=1;strokeColor=#545A5E;strokeWidth=3;fontSize=18;fontColor=#F9895C;" parent="1" edge="1">
          <mxGeometry width="50" height="50" relative="1" as="geometry">
            <mxPoint x="120" y="465" as="sourcePoint" />
            <mxPoint x="190" y="465" as="targetPoint" />
          </mxGeometry>
        </mxCell>
        <mxCell id="zWHwjysgA1_sXkl13r-_-254" value="&lt;font face=&quot;Quantum&quot; style=&quot;font-size: 20px&quot;&gt;local/internal communication&lt;/font&gt;" style="text;html=1;strokeColor=none;fillColor=none;align=center;verticalAlign=middle;whiteSpace=wrap;rounded=0;fontSize=18;fontColor=#F9895C;" parent="1" vertex="1">
          <mxGeometry x="200" y="455" width="290" height="20" as="geometry" />
        </mxCell>
        <mxCell id="Vql9rj5d_moiOUUVPlcb-136" value="" style="group" parent="1" vertex="1" connectable="0">
          <mxGeometry x="810" y="103" width="190" height="160" as="geometry" />
        </mxCell>
        <mxCell id="Vql9rj5d_moiOUUVPlcb-121" value="" style="group;fontStyle=0" parent="Vql9rj5d_moiOUUVPlcb-136" vertex="1" connectable="0">
          <mxGeometry width="170" height="140" as="geometry" />
        </mxCell>
        <mxCell id="Vql9rj5d_moiOUUVPlcb-125" value="" style="shape=image;verticalLabelPosition=bottom;labelBackgroundColor=#ffffff;verticalAlign=top;aspect=fixed;imageAspect=0;image=data:image/png,iVBORw0KGgoAAAANSUhEUgAAAgIAAAIACAMAAADHU/T1AAAABGdBTUEAALGPC/xhBQAAAAFzUkdCAK7OHOkAAAMAUExURUdwTDd0qTd4rv3NPDdsmf/TP//MOzNypv+/QP/aS7LJXDZunf3RQDZtnDdypDVtmzl1p//PPvzZSTZzpv/UQv/QQTd3rP7MO//LOjZ1qTd2qEFrqDZ1qjd4rzd3rTVrmDVunf/QPzd4rjd3qv/UPDVwoDZ1qv/RQDZunjZ4sDdvoP/QPzZ3rDZ3rjd3rf/QQf7LOf/QP//QP//PPvzURPzIODZ3rPzMPDZwpP/KOf/QPv/PQP/URjZ1qvzKOP/TQvzURjZvoP3LOv/RPfzKOPzLOvzTQzZ1qTd4r//MOjd4rzd4sP3NO/zJODZxozZvn//QPzd4rv/NPDZ2rDZ2rPzMOzVwoDZxofzSQjZ2qjZ3rf/NOzVxovzTQ/zKODd5rzd5sP7LOTZ1qzZwof3TQ/7RQf3UQv/KN//MOjZ1qjd5sDV4rvzJOPzMOzZxpDVqlv/aSv/VRf/cTf3VRP3KOf/XSP/LO/zVRDZunv/RQPzeTjd6sf/VRf3SQv3JOP3WRjVqlP/OPDZ0qf7JNzVwoTZvnzVplf/WRf7ZSv3LOf/NOzVwnzVqmDZunf3YSP3KODZxpDZsmjZwofzeTzd4sTNpk/3eT/3eUDVnlf3URf3VRf3eT/zeUDVwofzeTP/SQv/RQTdzpTdyo//TQzdxojd0p//QQDd2qv/URDdwoDd1qTdypP/PPzd1qDd3rP/XSP/YSTdvnv/VRf/WR//ZSv/LOjd4rjdxof/VRv/MO//OPv/NPDd2q//KOf/URTdzpjd0pv/OPTdvn//aS//WRv/PPjZtmzd4rTZunP/NPTh5sP/TRP/bTDZsmTdwoTh6sf/XR//JOP/QPzdwnzd3qzh5rzdunTZunf/MPDd3rf/cTTZrlzdzpDZrmDd0qDd5rzZtmv/dT//cTjZsmjZqlv/bTf/eUP/SQ//dTv/RQP/YSP/aTP/LOzZtnDh6sP/eTzdxozh6sjd2qf/fUDZqlTZsmP/ZSzdvnf/KODd4r//JNzh7sv/ZSf/KOjZql//IN0hhmJUAAACfdFJOUwBgYLRYDMAUAzABYLQ3YJAOLtgswcAzgnMnCQRKgiKQkBq1HQaQGDl/71haq3ZrEYgmNMD9/UP93HnACTCJ3yrZc5AU7dLsmJ9tkjqY+fmlRd19xbza8lL4pFoh1eLGzeag1b3OqrQ/U+ZU9/Pm7ZBSY26irh5gyGlK+NZA87+Q3E72qOU6t3WIumj7QcWZzM2bssz76Oyt97C7udrd4iZtHFwAACAASURBVHja7N1vaFvXGQZw26x4eE0Qc+diWzJUbp1okbS1C2pZJ5JQFht7JFUsEttzZs9pxmSD264f0uGWtiHboG1CGB60hWJFVhQrdpLGG3Y+GCcEM5eERSG2V4KzZDBBSaAmDhkhpIzJdhLff+fec6V7jnSk5/kQ8uka9P507rnnvOeqqKgQYqut8Nm7S7weh7++1e10BoPNzc0dXV1dgUBXV0fq/8Gg0+lurfc7PN42u6+isq66CBE+1bVN3R5/gzvYFeoZk2T6Ya4uZWL2pDSzqUysxBVodtc7vG2+yip8lqJ94yu6PY3OjtD03I2l3B+TRybg5EmVgEcEJo4fe5TQYbffawcFAb725d2ehubQhbmHyUzAMXnuHD9+PBR8rrjJhg86J1Pq8zT09V9YDjMBDxMK+ovLy/CZ59C473M4OxcurIaxgOMnlrJzj39XHT787KemrbGjP7GwwFPACoFjd1L/hNzechQhi2N/d0NnYinZELCc60evXz8aai3GaJCNiV+TI/XtT2RDgJRASsBy2p/zYRmBa/3tDa7E4+SAgKX01tuhgE+qZPXPGQHLCrbvwsoB81Q0yuqfUwKOnjh3rre+AkVi+fTn7VhczFTANDMB51ZyeEspSsUm5Q09ixwETGQo4OzZs9u2YyhgEHtwcVEQAakc2WPH6qGlKWvrWxRKQCrtazE1tC7dDwGIJCCVz9fiKdGa+DoeCCngyLlz7btwO8g8Nc4HggpI5eyRwz6UMMN1IEePtQKu8hSwlGtubCBkdA8IPBBdwLVrO7dgSpD2ENC4IJyAsyoBw8PDh7FMkOZacN+D/BAwPLxtPaaFacTbn4aAG4wFnEhLQCp7alFRszeBhgfpCLifowKGh3t3oaimUteRZwKGIxE/bgZmFgMC+ScgEvmzDZWlngh25qOASKS9BrWlFODKUQHXMxMQiRxAuzFVyvNWQCTSixUCmnlAZ/4KiER2/gEVNootkM8CIrd3YhwwSLUzvwVEo72VqLJu/PkuIBr9HFuHevEt5L2AaPQwOsp0JgKdBSAgGt2OShPTUBACotG3UWpCmhYKQ0B0Gx4LtFPWUSACotF2TAc0021GQE+Hu9HhcTQ6AwIKiI77UW6tQaCPWkDI71v5Gi3tv9Z1u3tEEzD+0RoUXHMQoBMQVB3WsnlCYgkYHz+I7gF1gnQC+jQ786s8+4USMD7+Q1RcmUoqAfcdpI7s2mahBIwfwIxQGQeNAJfO4Zxqv0gCxsexOKAMxdnhsU79lgvvrEACLmEYUKSGYgzoNNpk8wok4NIlDAOK6hkL2G+8puYQSMCldlRdvj1g/CxQQrG2EBRHwKU4OohUUwF9AW6ay9S5xBEQx46hbDrfbyTARddp4RVHQHwnJoTy2aDBmqCD0lKXMALicRwyk6TJSIDLRnmlYnEE4E4gncbZjXaGGqlvKSFhBMQPYKNAskdktDtM32TRKIyAeByniwgE1AIWAvSX8okjII7VIUndDDpEGugvVdUjjABMBqTTQYMusRIT12oWRkAcC4RaBLT7BJtMXKteGAHxj/AyMjUBQqeomRM4HmEExGdwukxFgNQrbGYdrVgcATMfo/QKAsRucTPXahNHwMz3UHo5AaKAaTNrKMXiCJjZgtLLCOicGLGZuJZXHAEz61F6KQG9M0NmXtTkEEfAeRB4nAqDU2N2E9dyiyMABKQE9M8Nekxcq0scASAgIaApYPXV0k76S9UJJOA8NgmkBPQEjPXQLwy0CSTgPM4USQjoChgba6O+lFMgASAgIWAgYCxIe6VakQSAgCaBOe2fmKDtGWkUSQAIaBEgCKCdENbtF0kACGgQmCP+zAzd0oBbKAGnQUBFgCxgLECzSGwXSwAIrKbcUMDYNMVxotpesQSAgJKAroDpacPTJLbDggkAAQUBAwHT0179i1QFRRMAAnIChgIMxoHSZuEEgICMAIWA6elW8pywIiCeABCQEqAScPVqF+FtQ9We/QIKAAEJAUoBqbRqdN2W2bsmRBQAAmoCNO8VnnDb5e33Nm/XhJgCQEBFgPbN0qHWkoqVWUGdzxPcPyGqABBYTaUpAStxhQKh/QL1CWoIAAEFAZNvl58V6LwAQQAIyAkI/PsC6Qo4/R2UXkKgEAXcAwEJgYIU8E8QWCVgpYBjwggAAQWBwhMAAqupsVDAHcYCItYJAAEZAWEE3LZOAAhICRSkABCQEChMASAgIVCYAr4CAQIBPQEn80kACBAIFI4AEFhNbWEKAAFNAtkVcISrABDQIlBQAkBAg0BhCfgSBFQECkwACJAJ5KmA0woBIKAiYCRglrGAa4wF3FMIAAElgYITAAKrqeMi4GiuCQABOYECFAACMgKFKAAEpATyQEDctAAQkBAoTAEgoCZQYAJAQEWg0AR8AwKPU5q5gOMCCgABBYHCEwACqykrzWJeypqAv4NAbuQlrjtDUgEgkGME+K0IPRIAArlFIAsCQCCnCGRDAAjkEoGsCACBHCKQHQEgkDsEuD8NgkCOEciWABDIFQJZEwACOUmApwAQyEUCXAWAQA4S4CsABHKPAGcBIJBzBAivk2Mm4N9KAi9/3zCbHyX1v32/ObRjw6ZnUULLCHAXoCLwxN/k+UKeW7dunVrNrVOXl/LXln3vvfEjlNEKAiYFzGQuwIiAroBTDwUsZ+O+Pz2f/U/SVu5r83ocqXhK0kyxJVlrMr3GLxWNmz48/JWSgEqAMQF6Act57XevZK/4Pk9Dh0v14+M3CvPV0iYE6BMwKWBqamrj3heyUP66toa+uYWFhQsQYF6ALgHzAqamLk/t+4Bv/SscHXOJRAIC0hSgRyAdAVNTZ86c2fd7bvUv9wcSy4GAdAXoEPhCRYBSQCpP/YxH/atKmhMJCKAT8CVJwH+IBDIRcObMxkPMHxLrHK4EBGQugEggMwFnRke3bmAKoKa+JwEBVgggEfg2UwGp7GU3EJQ29icgwBoBBAJWCBgd3f0qozmA5BYAAXQCviEK0CZAI+CyoYDRoY07yhgIsAcSEGCdAE0CBgJOUQoYnZyc/PQJy2eB7sQDCLBQgBYBCwVMTm7+pbUCSmT3AAjIXMA/1AQsFTA5udvKJQJb6yIEWCxATeBbc4uCRgKGht59xzIBTQEIsFyAmkBaAqbIAoaGWqzaNPD2Q4D1AowIWCAgZcCSPYPqxkUIYCDAgMAtcwsC2gJSBixYILA5IYCJAH0CFgkYmmzJeD5Q2wcBbAToErBKwNDQxa0ZNpXVBiCAkQA9AhYKuDi0OaOWshoIYCZAh0C6AkY1BKTyVAad5pWdEMBMAJmAxQIGB99KfwyAAIYCiARupbc5SBYwOPhhujvDmAmyFKBDwGoBgy3pLRVXNUMASwEkAgwEDA5uTmfbsBrrAWwFEAhYJmBIIiC96QDWBBkL+K8mAUYCBgd/a1pAGwQwFqBJIM0mIWMBg1vNthOWuyCA8kdH0xWgRSAzAZM6AkzfCmx9EMBawL/UBDJsEdEV8PXX5jaM3BDAXICaAFsBA7vNPBWUQAB7AYYELBYwMPC0ib0h9AlyEKBBgK2AgZZnqAk4IYCDADWBzJuEdAUMDFDPCEsoBMxBQKYC9Alksj2sJPBIwEDshbRuAxDASIAuASYCBgZ+QPk0AAFcBOgRYCRgYICqm7QJAvgI0CHATMDgTykElHVAAB8BZAIZt4iQBKTyjsm5IAQwFEAkYK0ABYHPjJsEOiGAk4B5AgFrGgQIg8BAeJ0RAQcE8BJAIMBYQPhJo16xHgjgJUCbAGsB4fAm6kEAAhgL0CTAXkD4Pf09YhcEcBOgRcC6JiGigPC7L+sR8EAAPwEaBNgKeEgg/CbV4wAEsBegJnDZ+s1BDQHh1/TeIwABHAUQCDAXEA6TN4vKAhDAUYA2AQ4Cwr8mv1QOAngKmN+lQYCHgBh5QuiEAJ4C5u1qAjwEpEI6U1DbDwE8Bcx/rCLASUB4r/6yEARwEjC/Rkkg7Taxi+YEhFu0e4mrOyGAq4D/lRsSYCTg5k3tt9V3QwBfAclKIgHWAmJPkieDzAUcg4BHApKlJALMBcRatA4Y2noggK+AT4oIBNgLiMU2ELqFZA8DTATcYSwgIo6A5PsEAla2iZEExN7Svg/kgYDb4ghIHtQmYGmbGElAbOt31feBfgjgKyD5R00CDBoENATEYus07gMQwFdA8nVlDV7hKCCmPmLqhADOApJvK2vwDEcBsX3q+4AVAk5CAL2ApHJ9uGgTRwGxF5Vvpe2GAN4CkjYlgXUs2sQIAtSPhY0QwFvAX1Q34w+YtIkRBMR+ofjrAREEHMknAeoHgqI3WW4OKgXc/LniZcMQwFtAcr2KwA6OAq5ceVG+RlwCAbwFqGeDRYd4CrhyRX7O3E0jYCzPBZzmKuCTKhWBz7gKGPmxrG/UBQGcBdw9qF6j38xVwMhPpH+7wgoBs4wFXGMs4B5jAfNJWdRTgWc3MhKgJLAiYKRF+lsl3lwQcDTPBcgGgeTdNSoCz7PdHlYKGBmRbhO0QgBvAe+rf1r+Dc4CRj5UrgpAAEcBd19XTwWe5ixgRLI4VAoBvAVo3AeKPuUsYORXklNEypeK5qGA+P/Zux+fKq8zDuDPwihIgyO5zYQL0qGoTKZoA1qDQEAEq/Jj/oCo4KrQoRkqYlFLtFIVpFG0SkRbdctsu4VpYqe9McBwpYWtpBvxzmR1zZZMU02nJl2Cc6bZst33Xri/3vPe+9573/Oc9748zz/AzTkf3l/ne56jLwEtjNBONZIAJ4H9rtjIVBKALOCx/H0AUjjGxJgXgcuXXceYTiMByALORgH7afAqx+VhmYDLrn1l3+cv4FcGF/DHgAQ8Psm4DxzgHBCQCxhyJoemkwBkAayHQahFFzAU4XwaJAHIAtoYAjIy0QUMVTsbDIW/gPfCSgDzItDAOSTEEDC0cLzPwDISgCuAdRGAXbgC7ASGxlsQrvYr4PecBXzEWcAtzgL+FZCAxyZWk58ivjExpoChN8ZfCEgAqgDW6wDMwlge9hbQ+9LY5+GQBfzG4AJ+p6mA03EsAgdECOgtGDuCggRgCnj8bWazt2oRAnrH3grnkgBMAcxnQed9AFdA79qxLQR6F3DJSAJOz2QSOK6pgH+oFNBb4lgomkYC8AQ8PsYUELmfe0yMJaC3t8n+539EAvAEpLGbve3ECQi4BIwTcJxU9LIfAX8xuIDPEQW0JbIJ1AoS0GvfWGgmAWgCWuLYAvaJEtAbb99LRgKQBHx5erpC08+3RQkYsG8nWUECkK4Bp00KAuZnYsTEWAIG7D3J14sV8FuDC/jSvwDYhRMTYwgYeNO+VMy9qej73BsKchTwd/4C8jLRAgLeAgbsO8yXkwAMAS0JisdAvCJOwNA2+6ZiQwv4WCcCOqIUBczKFCZgYGCh9HlwNQngL6DMrCggeo9AAQMDKbafsJkE8BZwdq+PI8F2osXEWAIGpJOqXiYBnAW0fNeHgCVFiCEhuYDhcttv+ElYHzAgVsDf1Ag4GefrcNBXkJeHvQQMbwEwkwCuAlqO+TwhuEGwgOHdADNJAEcBZ9PMPgUwbgO4AoZfAkiYUMfMIAsom+77nPjod0QLGF4FsIIE8BLQFgsxvglMESCg10PA8DyAJBLAR0BbK/ir8kzskJBMwPBKxyoRCdCynZwk4OxJk18AkFckYnnYU0DfIYC5JEBzAS35Uf4BQEq1DgT0RUgLhRNVwKd8BJze0QpqKrJWDwL6ngGYSgI0FNCy41giqBPwnC4E9C11I0ACQhRwti3fBDExggX8Sb0AO4G1ADkkQAMBLWX5sSr//fkJ+EUQAiQCy0lASAJa2nbsPRYHgVVKrcDlYffbQF9f7jiBsBJQUdVRc6qs7OQMRn3PR31HdT3vo3bY6/kdafnPVsbOjIEganG1bgT0bQMoDh8BFR0n8ytbk80Q5tWwXz8C+goBloWFgIqatKTpYIhKPZCpIwESgXW6F1Bak9+aCEap+bVCQ0LeAvrqAX6gbwGlpybHgXEqZud+vF5SagT0ldgI6FlAx2wjzb/tOXDPVbExMZmA2wsBpulWQEWxyVDzD5EHMq/eEB4Q8BRw+3aMnYAeBWzPjzMYgCNFV3Uo4HaqRECHAgwHIFsCoEcBt7NtzwL6E1CaZjAATe1FVwUJ6PUjoMdGQH8CahIMNf8x5W9nCuokpEJAT7QXAR0IODzbUPM/60A11lFDKpeHPQVkAazTmYBTUQZ6Aix3zr9eBfSUACzTlYDSvUaZ/ozX2vdkYh43FpyAnnqAYj0JuGCELwHZi9Pbf1ydiXzgXJACegoBlutIQE2wN4GYjKa8SUi1mFWz9r3WkL6zsX3XO7VFmcrnj+tkachNQM82NwLiBZQFvBiUmtdw5Pi5zq6Hd5z1laPujtUXzrpnrz+41UNbfeJRTz70qg+86sGDK+51U6prrhocHLw5GCYCXARydCMgLbDL7b7GXeeb738t1R1eAv4TsIBBdQLELg25CejJdRIIKwHZ5e2dzfel+tqLgIEE/AxFQM9agKk6EZCv+ktb4znH9OtCwE3VAm7oUkDPUoA5YXUNaDrSed9VQgVcMYSAvhMAc3UhoFjVw1/6ubv3uQl4MhEF9PQ8A7BeDwJOqXgXaGrvGh0NQMBdEqBCQE8EQJIOBFT5XxicdKZ5VJWAr3gJeCBSgMZLQ261CWCFeAEVyf4BjI6GgYBBlQI+E7w46FaPCgBM4leGKv2Fbh0A9Cvgmg4EDAUn4NEUgGThAmb4WW5rb8YW8OHEEfAoHiBKtIAq37uDGrpGQxZwjwQoCbDsBkgULOBorM/9l2P3AE8B9ye2gIB3D/sQYJFOLT4oNiWWo+oSEJyAL0QKEHXIRGACLHW2Yd4qVMAFs6/dd6PcBXwiVoCI5WEPAZbFUidyoWlxH28DTZ3hJyAMAgIuApIAywbbSK8RKaBGWcALXToQ8IHRBViybUO9TqCAW8pBsYZmHgIekgBPAYXSWOcI3DVWprwD944qAcJDQuIiIsGFhLwEWOzHU80RJ2BEcc9IoxABEyAk5CXAEiGN9npxe4cVLwKNoz4EUEhIOwGWldJwLxDXP0DpSWCnbgUYYXnYXYBllTTeJmEClF4H9jXrUMAVQwqQvg8DRAnrIZKk0KC7C0PAExIgVbl9yA8KElClsBPrPPs2QCEhjQR4EMizj/kPBXWSUsgMnwlIAIWEAl8cdK9I+5ivEdRLLCqQl4FwDgm9q6OQkJeAQsegF4vpJ3iKHRFrNpwAnQUEPGqjY9TniOkoyVwgiu7Uv4BrxhFg2eQY9kohAirMvm8DFBNDENAf7xh2k5C+wswvg03NFBJCFPDf/jcc424W0lm60ufbAIWE+MTEvAT0zx8b+K0CBBxl7R6ZdIdCQpxDQp4CSqLHRn71L/G7yzM/Dp+jkBCqgP6l4yO/TMAJE6zvQvsoJMQ9IuIhoP/Q+NDncxZwkXHGSKzyRYBCQlgC+qeMD/0CfAEVjK3EecYJCX2m15CQp4DxFwKAKL4C/sk4Z4j1afA4xcS0WBoKQEB/inPwt2ILuM5oKhLZTCEhjOVhNwG5rtGfhi3g+gKFD4MUEkIQYBkT0P+qa/RzsAVcZ3wV6KSQELKA8c/D9gQptoALjG/DFBLCFtBf5xp+E7KAEcbT4BEKCSGEhDwEZEW6hj/xIK6AkTTmfUCkgAdhI6BXKwGub4P2T8RBC/h5MAJGnpU3EpiwMTHMkJCHgP6V7hOQgytgRP5tMJ1CQigBAfdKd5+AJFwBI/LY4HEKCWELyFriPgFxH6EKqJA/CpynkBCygP4TnjOwGVNAt3wHQQr1ksIICXnUPM8pKA5OwF+DEtAtDws0hFtI6EZYhoQ8qtxzCr6FKaBbnhtsp5gYj15SPgQ8LUn1nIJkpoD3+QjoljebPEMxMYSQkAeBN73n4EVEAd1pyk+DFBPjGRFxE/A03nsOihEFdMtSY9n3KCaGLMA633sSkhAFdMvOo5xEMTFUAf1PrSdkV2JzKZ6A7skKLwQUE+MaE3MXYF0k/zazBk9At2yJoJF6SSGEhNwFWDfICczFEyC/CrRTTAxZwAlGeDMBT4D8KrCLYmIYERGXANZ9wPZaiCZATuAcxcRwBbDuAwA5aALkBDopJoYrYCOzv4dJWwHvKQuQEzhPMTHuMTF3Adbd7D5Pm7EEyAn8lGJi/ENCbgIKs9kE0hhLQ1wE3JIR6KJeUjgCxggUKDT9TMYSICfQTDEx/hERlwBrnlLz57eQBDAJUEwMT8DriqdA5CMJkBGIppgYpgBruiKBqFIcAQwCFBPjHRNzE7AtVfk4oHVqBVwKScDHMgIUE+MeE3MJsMb7OBawFUeADwIUE+MVEnIJUHojdFQVigBlAuEbE3tX5zExlwD28oCz9qIIUCRAMTF+ISHXRSDSJ4G4CgwBSgQoJoYgwDrF90HxMANDgAIBionxi4m5qj7DD4HppQgCfBOgIwc5xMSsql4HxpLEIbaUVCOATYBiYhxDQs7KTfVLIPkifwG/ZhGgmBjXgMB4bQH/tS5UAdf9CmARoJgYioDXVQgA00XuAhgEKCaGIiBrsRoCUMZXAJMAxcRQBFhXqhJgeyngLUCJAMXEOMXEnM+CkeoIQA5vAf4I0JGDfARYy1UKgLjtnAUoEKCYGLeAQEC3AftKAWcBbAIUE+MsQPVtQOpEWcVXAJMAxcQ4C8iqgwAq9hJXASwCFBPjLOCbVRBQzQhSwIgqAQwCFBPjFhMbExARExgB8wWeAuQEKCbGLybmEJCbAQHWAp4CFAmEUy+pcImJOQSUvAABVzFHAUoEKCbGS0BWeuACwFzFT4ACAYqJ8QgJSQK+iYdgKqGCm4B/MwlQTIybgAIIriZzE/BnFgHqJcUjJmYXcCgmSAJQxksAiwDFxLjExCQBEanBCgBzBycBDAIUE+MSE5MEvBq8AICoF/kIkBPQVUjIQDEx6S4QDaFUwnYuAnwQoJiYxgI2hSYA4FgpDwHKBCgmprGAeTEQaiWVchDwuRIBCglpKsBakg4aVOVR7QUoEZhwvaT4xsSshbNAk5p9VHMBCgQoJqatgI0bQKOqLNVaAJsAxcQ0DQhkTYkGzap1u8YCmAQoJqalgP9tqwMty3RYWwEsAhQS0lJA1qYM0Lamd2gqgEGAQkJaClhaB5pXYrGWAj6VESABGgYE6helAo+afFQ7AUoEDNRLSlxMrKRgCXCqhLc0E6BAgI4cDF1A1qYNwK8S00o1EsAmQCGhkAXUFzQB3zLVaCOASYBCQqGGhHIXZQD/mn1YCwEsAtRLKjQB9YfqYgCl4tK2hy6AQYBiYqGEhOoPbfl/e3fXmsgVxgE8sJjakIWVblHKUhCEWfDC6GaQ1DDZ+hIQlBXBVpAI0li90EIaYxrYuIRQUrOwtpct7DfY21z0Yi/7Abzrl+h9CV3S3YuNY+bMzBnf5jye//MNDs8vOp7553kSK4urB4+/mVaAkcASx8TezFmAOthohFYWXA++fj2dAEsCmCXFLUDVOsWCZ8WVWnv07OUUAqwILDwktP/Qqj63q68Y9cRQqzOq3qCkaVpp0DtPBpoxl7p/myv86buXkwqwILD4kND2CmryL4Rvf3s9kYB/TAm4EBICgWk/DB49fvbrDw4FmBJwIyYGAjOpL7787P7P9/nrEzYBV0JCICBEeV2MiYGAOARcCgmBgDAE3JolBQKiEHAtIgICghBwLyQEAmIQcDEmBgLCEHArJgYCohBwLSYGAoIQcC8mBgJiEHAxJgYCIhJYaEgIBAQksNiYGAiIR2DBMTEQEI7AomNiD7/X1fokdW/iOkHrGQSkmiV1idYbCcg1SwoEjAQkmyUFAgYCsk0TA4G7BJZqmhjPBAEQuENAbAHzmCWVRevHCEg4SwoExgjIuHIQBPQEpJwkBAI6AnLOkgKBEQFJVw6CgI7AMq4ctJ8mBgIjApJOEwMBUwKyTBMDATMC0sySCqD1bALyTBMDATYBiaaJgQCTgEwrB0GARUCqaWIgwCAg18pBEDASkGzhHAgYCMi2chAE7hKQSAAIMAkse0zMuGIABMYJSLhycAut1xOQceUgCOgJ/CfjujEQ0BOQcuEcCOgIyLlyEARGBKSIiRnXjYGAGQFaMbF2vRguKEohXKy3HS6cAwETAvMUMOvXw5rfpz+Iz685WTkIAmwChGJimabXcJRmhn/pZBGtNyFAQ8CbdJe5GdB7kOZdPw4CTAJkPgP6QbPjBPuci2dBgEVA5JDQmIANr8V5knyrh0GAQYBMTMzmDU+Aa/k0CBgJkImJ2TavyLN+HAQMBMjExGr2Z6pxrB0FgbsEyEREMhxLghMZ+8WzfrR+nAAZAXGuiaXbcdvVwyAwToBOTCzJd6qk7fJpEBgj4HJMzEFIqJXiO1WqZbd+HAT0BAjFxJK8x0raLaAHAR0BSjGxKO+xoiwBV29BgEWAUkRkwH+uqrUAEBiVh1JIyMGP+S1rASCg+8SkFBNT+M+lGF8OggC7PiUUE4sn+M+VUC0FgMCoYoSmiZWcHKxkKeDtBlp/e5FGJCb2ISq66uRgPUsB/4LA6FmA0ByZjpODdSwFgIDuHo3QJKG6k4OdWwoYgsBtrW3SmSXVmZDAO6MAENDVnugxsdG/jDh6FuhbCgABXf1BZ5rYZL8ImAJAQFcv6EwTi4f4jxXKWwoAAV0dEJomFnNw32EtAATuXAxQmSTkYDpMwFrAMIfO35b3lM4sKQfPgz2mgLcfBQxr6PyofqczTSx+xHuooGotAAT09aOwMTHjBAHulzt+GwHDJBo/qgqhaWJpD9+ZPGkbAUP8c7m+jglNE/M7+BCwEjAMo++6uiA0SahV4Xr3lbcTMIyh7/o3RZt0Zkn9terl+JHTsxWQD6Hv+qpTmibGcaezYStgOEDXx+o5qWliXbvjdO0F4HLQ8EAo7tJJ40jBuM2TXFhlBgTG6rqBpo/XNJKkCAAAAspJREFUiYgxMdNlU3HLHYMBDgE3aS+afqf2aa0bq5leD3hqVxyfAde4GGI8DdBaOagVTD7ONC4B1z603PiigNrSyT7jh73St3w5OBJQRcMZt8Rl4WJidksnq93I2O3GZfWKU8B1Ew1nXRESXDoZrya7jWgwGG10k1X16sru1dBHAYM19Jt1o3ZMdemk9X8NMQTcnKHd7Hv1MtmFcw4F9NFskzqQREA+il6b1atlF/CBwM0N/qfYvELHJJdOOhQwwMWgRQX3xIqJzUNAC18D1o+EuwSXTlr876hRwA2uBGxKOSW5boxfAB4EbKtQXmoB57gU4nhhdLrEAvqIi/FUbJeggHdcAqoJtJerfHu0lk5yC+h50Fze34bHrsXE5ibgPYEOvgUc3BEdChgQmFZADldCjupiU1QBf04mQM2iqU4fCp8ulYA0EsPOy3NIUwDz5WAviIZOUs1dEQT8Pb2AfAAXQhNW5NWmSDGxSQUMEBee5pXBvtgBAQ4BrQB+CUxV3otd2iGhczwFTP9t8EuZroABfgjM5rIwV6YZE8sgGzCzqhyW6cXEtC4eAmb6SeDfnbmAucbEqk0AmHUlsiWxY2K6/qsdBQ2by6+Dk3qZQlBQ81fQrLlVKrAveEgo3znBN8CcK5ZrCytArWZT6NAivhCUF3sCClB7WVwDLbC2/U+FCgq2Opf4+194HR0ctoUICqpVv4Lvf7fKF1g/dTUomK8mmxH0weUnA99BLhN3IyiY7mw1kAoXpTzPt+ql+MJCQqrWKZ7hx7+A94ex7sb6XnyuAlStn8s28P8AYn8gxMLFXL+Un7GAvNbLBc528MFP6BEhqLynUH9SSk8jQE1n+jX/5VkshfQf4QoFtwvhgD+Zq99bHZTarbi5gHy6XRqs9ju1nD8bPolVImj8UtZawhNJBY8q0R1fTFGU2LZvJ1qpBIOpCH7co+Sr/wHFUOkOcIFVEwAAAABJRU5ErkJggg==;fontStyle=0" parent="Vql9rj5d_moiOUUVPlcb-121" vertex="1">
          <mxGeometry x="61.18000000000002" y="30.423076923076923" width="37.65" height="37.5" as="geometry" />
        </mxCell>
        <mxCell id="Vql9rj5d_moiOUUVPlcb-131" value="" style="group;fontStyle=0" parent="Vql9rj5d_moiOUUVPlcb-136" vertex="1" connectable="0">
          <mxGeometry x="20" y="20" width="170" height="140" as="geometry" />
        </mxCell>
        <mxCell id="Vql9rj5d_moiOUUVPlcb-132" value="" style="rounded=1;whiteSpace=wrap;html=1;strokeWidth=3;gradientDirection=south;gradientColor=#F9895C;fillColor=#65BCD8;strokeColor=#545A5E;glass=0;sketch=0;fontStyle=0" parent="Vql9rj5d_moiOUUVPlcb-131" vertex="1">
          <mxGeometry x="-10" width="180" height="120" as="geometry" />
        </mxCell>
        <mxCell id="Vql9rj5d_moiOUUVPlcb-133" value="" style="ellipse;whiteSpace=wrap;html=1;aspect=fixed;strokeWidth=4;strokeColor=#F9895C;fontStyle=0" parent="Vql9rj5d_moiOUUVPlcb-131" vertex="1">
          <mxGeometry x="46" y="14" width="68" height="68" as="geometry" />
        </mxCell>
        <mxCell id="Vql9rj5d_moiOUUVPlcb-134" value="&lt;blockquote style=&quot;margin: 0 0 0 40px; border: none; padding: 0px;&quot;&gt;&lt;h3&gt;&lt;span style=&quot;font-size: 19px; font-weight: 400;&quot;&gt;SPHINX&lt;/span&gt;&lt;/h3&gt;&lt;/blockquote&gt;" style="text;html=1;strokeColor=none;fillColor=none;align=center;verticalAlign=middle;whiteSpace=wrap;rounded=0;labelBackgroundColor=none;fontColor=#F8D643;fontFamily=Quantum;fontStyle=0" parent="Vql9rj5d_moiOUUVPlcb-131" vertex="1">
          <mxGeometry x="4" y="92" width="110" height="21.54" as="geometry" />
        </mxCell>
        <mxCell id="aZOu54mgNPIQ95392Zl_-32" value="" style="shape=image;verticalLabelPosition=bottom;labelBackgroundColor=default;verticalAlign=top;aspect=fixed;imageAspect=0;image=data:image/png,iVBORw0KGgoAAAANSUhEUgAAARgAAAEYCAYAAACHjumMAAAevklEQVR4nOydCZRdVZX+v6rKVEkIlRBDSJGBDCRhSMKYMAUERQwiCAILQfTvf9mtorYDy1m0RVHaFlEEEQSR0REJShSBSENAZhJCSIgkhEDmkIHMlapXvW77veb1o4b33j37nnPv/X5r7ZUQknrnnnvfd/fZZ5+96yGEEEZIYIQQZkhghBBmSGCEEGZIYIQQZkhghBBmSGCEEGZIYIQQZkhghBBmSGCEEGZIYIQQZkhghBBmSGCEEGZIYIQQZkhghBBmSGCEEGZIYIQQZkhghBBmSGCEEGZIYIQQZkhghBBmSGCEEGZIYIQQZkhghBBmSGCEEGZIYIQQZkhghBBmSGCEEGZIYIQQZkhghBBmSGCEEGZIYIQQZkhghBBmSGCEEGZIYIQQZkhghBBmSGCEEGZIYIQQZkhghBBmSGCEEGZIYIQQZkhghBBmSGCEEGZIYIQQZkhghBBmSGCEEGZIYIQQZkhghBBmSGCEEGZIYIQQZkhghBBmSGCEEGZIYIQQZkhghBBm9PA9AJEaegLow99Hv+5T4b97DcBu/n4bgILR+ESASGBEOdEz0QvAeACTAUwHsD+AIQDGxfzZzwDYCeA2AOsA/AnADkfjFgFS53sAwiuRmBxOMRkJ4HgAwwDsB6DB+AXUTrF5gr9/GMA8AHMBLAPQZvjZIiEkMNkmEoi9uJyJRGM4xeRQLnOi3zf6HmQZrQBaADwJYCGA9QBeArCcv66jMAkhPBAtb04AMAvA8/QOsmRrAFwP4AwAvX1PtugaeTDpZU8AUwGMoU2mpzKaX7ys7xC209NZQu/mBQpqtOT6B/+f8IwEJj30BDACwDkATufypsn3oAJlBYBFAO4BcDuXWYrpeEACEyZ70BMZzx2cAwAczUCsqJ5IbP4O4FkA87nMeqlk+1yIXHAQgCsBvBFArCPrFonOpQAG+77pWUYejF/qGDv5AICDARzF2IpIjmj5dBeAOwHMBrDL94CyhAQmWfoBOBDAJOafvIMBWhEGawG8DOARAE9zSbVEAWMROkcAeAzAhgCWBrLqbA2ATwSYL5QK5MHYEAnKewFMBHAYs2N7+R6UiMVGJvnNpWfzVx59EF0ggXHHNAAfBPB27v5kPQ8l70TezVIAfwBwA4PGogwJTG305o7PJABHAngnU/ElKvmkQA/nXgAPAXiOXo6ONIiqOBzA3Qz6+Y4NyMK2TQC+nfeKBfJguqcZwHuYQXuMzr+IKtkA4FEAtwL4DcUnN0hg3qSeqfcTuZU8GsBJzE+RqAgXbGCuzcMAHgewgEW4ciU6eaMX81HuY+q4b9dalh/bzefuAN9fAivy5sH0Yy2UYxikHcazPs2+ByZyzW6eCH+K+VKzeWaq3fO49qD3vt7zOIKlgaUeP8wI/8YA3lpZtG1l5ns8abcCc2xuYW2fJALFDUwmPAnAZdwNawVwSZwfmiUPJpqcCQD2pVdyNHd9mjl5ontaAGylEG8A8Apr5q7hn63g31vKXZIii0qKedfzPhTZm/egnvGtJgBvY3W9gTxsOCDBa0wbkeCsYoW/R3kPIm9nO4DXAWzm33ujrCRFQ9m87k0Pvp5lPwbxPozjvRjD7065mD1Kj78m0i4w0QReQNU9hpMoKqeNQvEggJl8a72S8Biih34sc4nOZlBdafnV8w+KTpFGvmjj0srE0aW1/OO0CUwD1XcGA7PHseasqIwWPij3srD2g1zrF/im9E09a95MK0lgHKtdPO/MYqpG1c9IiAITuWj9S9y2UXyrNTPaPkxLnm7ZQAFZQXsWwGJmmG5KUW+iOj4Ph/LeT+bzMJEvmj6+B5gjPgDgDt+DqJVoLf6vAK4G8GIAQbY02haei3l7Tg5WNjPONotxIt/zn3VbWYtDkpQHsy+A9zFmMoSBvpEUliZ6JblOqa6C4jLnEW5rbmZ7j0U5PvvSRG/3QHo5h9LLUUzOHZHX+36+xILjQwEocJptN/MjvsSYhOienozl/EdG27f4sF9XexOS8mAigbkpoc9KOwW24FjI2Mnj/O/Vxp9bT+9yL9qe/LWJW5oDGfcAd37GV/hzF7AMZYEBZXCnaiMTuJbx4V3FHQsLetHDOYrB41FMtNxHJ+CrYg3v+2bfAylHHkz3tgnAT/nFTkr4pwC4isWTNvAL7uv6o8+/ljV1XGyvdkdP5kn9LoB7nya7pppJlgfjl+hNcD+LTt/HN4QV+zEoWmxo/zbGwULckdvJXa8nS7y454xq4zYw2ewCWrPigV2ygzHTTZX8ZQlMchSYJfss4ymRPcDdHxfUcTkzgjaGS5wj6dbuG6iYVMpqJpPNZSHuJdzZWEbvxxXDmJ4/lWI8WQ3u3sIZTMwMhrwvkf7GHY6+BnM7BMC5jNPkcbt2J73A83k4zzWNLPq9LIBrDcV+VenkyYNxT4EtL+7ngbVnGdSMG8DszdjECSzVOYKByiYj4UojWygEi7ncfIbLq4UOWsf24vJpIr2b4wEcm3KvsFY20zNe7HsgRbLuwexgluO7uUPhSriHA7gYwM0AXgvgOtNqLzE4+W7HL9VmejfPeg6Q+7CfVDJB8mCqo51ispK5FfOZ8PYQ/7xWenD3aAJ3dg5nDsfonGTlJkU7Tx0/z6pyCxnTWRwzSbGOx1tO5sHbSYzd9Hc49tDYyWf1Rd8DQQY8mDZ6EF90PC/13JZdHMA15tm2s0B3o8O8mGjZ+rWMx8W+5WiuYpNWgVkH4JdsoubqYF09U9l/yPT+tgCuU/ZP28L42UUMnrugH4BTAdyWwZKsd3d38Voi/ZNCyTboPAYHX2DuRZxm6HU8f3VIyWngd3DpI8JmJ93/+wA8wWfh1bKaK9XSn4dRp3MZNRHAUCb9pZH1vI5VvgcSqgfTygDqiQbX3ERRlYeSHYuelyt4xMAV4wD8OIXezWYAZ3Z3cXnxYHbz7TOn5JzPIgZrXbSN6MVkthklJ3onKECbWVp4xmohS0o+AODlGN5uHdMQDud5qXeymFoo9W4ib24tvbnHuYx8IaTT+z48mJcA3Angs0yTd00Pish3WCPV9xtF5tdWAPgZd1Zc5MZES6ezWO9ms4fr2cDvz3lxyl6k3YNpY+Hj5bzBi2iPcWfGVeW2Hkwhn8gHaCwTrcYGWhVQ+KOdsbx7+bafT+8mzpGQXqw5PZV5VkNpg5jeMKjK81M7OJ4NFK+VJQXen+Y2/ssuzn6lVWCWAridbR0sswn7slDWRXRdhaiFNwBcB+Byox5DwylCI7uIJz7DDQxQXNYajOMtpEFgWrjcWcbkqL/wDbHN8RiLDGIs5Wj+OtLoc0T+2ArgFzzL84Rh/ZtgCEVg1nOraweFZBldtGIwdi1dT9c0MTg7uiR7dlLGMzBFGLzE+MoSehdzKUCiBkqDvJs4ud9jjc/xCccxBnA8CxkF9x0cTNoW01W/PYCxyN60TSz+tWeC3wVzkvpiD+E2XLHRV5xkpUopnn4dV1ITZTK9lX4JfL5PNjJQt5JBu1cpqOuYUFhgwfDDfA+0CyLx/w3r2hyco+6P2/kCfoqe/GxuWsQ9DV4pjQwgr455vi6TDGHyz7VcYvl+KyVlOykglzFTtDsBPTEFCYAtfDmAS9nzANzDXBPfY0va1gL4LVv7jHH4fRnMYyufY1xoDneW2nmKPzZp3GKtYwHqYk/d/bl1N4X1UbLcdrSd8arFTHRaTE/leR7GrJTb2EgrdL4N4OtlfzaIKQLT+AwcwHSBvNRlaWVqxnqmZ8znc7GdqRodfaeHlHiA+7LS4SQuxzp7GS2kx7/b8FqCYjS3ix/j2833WyVpu5eH5uJ+kXqlKPa0uYJs6HoG6O8IYLxZs3NjPmtBezCH0H07FsC7WA4xT7s7u7n+vo1vqYUxD14W6c3dijQUtt7Gt20l193AmNKFXCa7PC+UV+bwyELN+BCYBiawDWIQdgjdtn3opYzm0mdo4ALokjZu0xd7SD/EMy4WSVmDGOxNQz+gNorGvCr/XbG86Cn8gkzkc5WGaw6JApejc3wPpDuOBvBz9qDZmvEiPNVY5KVcScFN6uEfF8B1V2MnOLjmesZsHg3getJm18WZ+KTc5Oih/v8JfVaotFFc/8Klz3wGZ121LamUjXwzpeFtXnCUfFZg7G46n8VRXHrP4BZ4XgLEtXAS42AWPamcEWo9mCRsI72UAwJ5kHunqPbIVo7XkklMa1gbwPWGapfWOrmhHBXICjsoKPNoD9FbcRGcdUUPHhYd7nsgFbCY9XWSOLPTxODwgUzMnJKzTYWu2Mb8qid9D6Qzsu7B7GKls6G+J7pCfh3AnFViN3qco74A/jOH7Ug6s6c83otuyaLA7GLLko9zFyxNzAhg/iqxszzPUx09mRtStKy0sp0OC6E7J+0Cs4MFoH8H4BK2KU1znkUDr8f3vHZlawNbojRSmK9kIak8Hlm4xPdN6Iy0CszrLGqVxZowXw1gfruyv/ieoG44kO2BQz/T5dIeqnaS0pDNmRSrWAToMQaz1vDApFVhK9/cwkZyFg3jXfCw7wF0wwIW5x7PUpbRUuo0x4cRQ2Mq2+/+2fdAygndg/kuH5S8cX0Ac9+R7UhRwLyU3uzU+UgAc2hly0M8UBy6wLRzTT2fAb3PAziHp7OzfFzhhADmvdwKBi16k2Yka9n4nksrm+F7gstJg8B09rCvBPDvKdwpqoR65un4nudSW5SSLOPOmMAzZL7n0dKu8T3J5aRVYEptK0sCnMYTvllheEmRoRAsrd5LTxZpSkspjDi2LLSmglkQmFJrY0T9S6wOl/Y6qt8IYE7bmcyVpthLHQ/yXslOF77nz9q2s2zIXTytHgxZE5hy28pAcbPviY7BrZ7nsNqSDL45iEXAfD97SdhyZqqP9j3pnZF1gSlasYfTrwF8kluXaSHywmZ6mrc1POsSOoMAfIrztCmA583KlrMN7vkU0hAO6XZJXgSm3Fr5Zv4mgBG+b0IFDGR+TFLzU6AYB+Vud8DbKSpbAnimrCwSzD+yLGvq8uPyKjCltotFmX/J6vDTmAof4jb46WwEZjkfGwB8xfeFdkJ/1kGJxvdcRs8htTEt4yYA7017Kx8JTMfWSo8hxCS/JjZnKxhc91OBbvsP4BLo1QCeDUtbBOAdvifbJRKYrm07a59cwQr5Ibmolzns4rCb7VJDWxIdBOAnGY+rtPMIzFcZS0qEpNzzfeh2T2HexUTuuAS1lx4QL/NcVLFncfFc1BuexjMawBk8e1MszF6pCK5jadAFAP7AxD6fROMexnM1RzHmMCYNgcwaeQ3AA+xOcT+FJvPU8UZ/IQVlA0KxXezu927fN48Cc0VJ069yW8O1/ZkBfXHrWRd6XU5OQEde5498x1ZCCDD2pIdzEJOspnCZcAiAPr4HFyDF/t5LASxh3ZR5TIBayP+XFD068ULbPJcJ7Q1gbwDH0Es5lDWRB3ocUxK00ev9E4A76TmKThjK9qZ3MEaRh7dOXNvJYkjf4y7IfhTwPNDEJdxPeBYob8/LauatBEUIHkwlNNAtP4ZV4A9moHCfHH2BaqHU23mG6eyrmUi1nTVwtnhonVIrfbiFvD9fQPuWPBfjA65tY0Ub7+l1tKzWLvJGJDY/5oln32+QtNob3Db+NAPxgwL5otZxLJGdxwp3us//137g+yZ1R1o8mO5oZJvQs5h1Ocz3gFJKgbaF8ZzoDflfjKfM4fPSUlZhvtZYS2m/o3EA3sY8lMO5tBvL37fTg83Ks+qCNex48CNu/QdLFm9aD9ZLnc7A8b78NQ2p+mmh+FC3U4jaq/z3PctyYRpSXgMmKTYCuJr1iZLoFRWbLApMR9RzVypaBryfPW+ESBOL+NJc53sg1ZAXgSmlHz2aiXTFT2QsZ4DvgQnRAZuZTX0zA/SpIo8C0xF7MqPzI2wbGkKQU4jNTNWY5XsgtSKBeStDeNJ5Cn89lH+muRJJsZkN+X/BTHeRYXoA+CgPI/relpTlwz7k+6EXydMHwLkA/sbcEd8PoSx71sYdopBO08dCbn9t7AngZJ7ILXb1C6mPskgfBR7+DT55TiRPJC4X5aAfjszG2rgMzxzyYNzSF8BgbntPZufE43VeSnSBPBcRi0h0LuRZmlcCeFvKwrFWdp/ILPJgkqUnM4qPYMOuiTxzo7yb8Gg1Drau5bLobsPPEOJ/AsZnAPi9w9q3snjWBuBs48/4pu8HT+SPUWxpcg+A1wP4ouXVZgH4vOHP38RYXebREilc+rCw1jQW1tq/pFh62nthh8wLAGYA+CyAfzP4+TsAnMOylkIERwMLf9/IOEHeSkNa2gOsLQTDxnO/8vz8JIo8mHTTm97MCNoElpI8hCfGG8sKO4nOuZ+exUZ+L9YaLWPOZPuWXCCByTbDWE0/EpvDWGF/qO9WFgGyleK8gv/dyKpxFrt7w9mrKBekUWDqAezFLd/hHfz/ZSzjmGT7jrRQR3FpZonKEaz+18g4z54lXf9G8e83eWiQ18L7twXAuh49ejS3trZ2dK9dsADABVwSFWk2EoG/AziWyXW5IA2HqhpZ9vJsVvTan4WiumIHb+bPeDgxVVXADGnn2/rFKsoADOM9GAvgOP5ZXy4n2sv+bn8KUmdsYSmCIgX2v27jf89hlfydJd5E79bW1nkVjrUWPlkmLpb8PE/iEjL9mRvyC7bciNOAfQtbOqgQuFvqOrAhjP90ZsM6+Ddd0RvArUbB1gKrxHXknTUbfeZHjO6F6IbIXT+Nb5NZ3B1xfXNb2cTteBWYTgUHGbcVvqqLz5bAZIiTGFCzepA6su/4vmjRJb1Z5Nrq/r/QzUvGSmB+nOAc5po+AD4O4GFPeRzRGn8my2GKsJjCXtsW930bgIsr2H62EphXPQTMc0d/JhslLSod2RaJTFD0MRSX9irO/1gJTDsFVBgQCcvHjF3fWuxpbnsLvxxk+Gy0ckex0l1TS4H5nPE85pZvBCAmndnDKgrlld7GAd0bqhyPpcCs1CaDey5k4pRvIenKpvqepJwSLYtuMbyv25hMWA2WAtPOXkfCEacC2B6AgHRn1/meqBxiuSxqZwLdmBrGZS0w69nYX8SkmZmbvsWjEmtlxrBIhrHG7V+21SguSEBgInvc8XzmjugBWhKAcFRjV/uetJzwHvZZtnpR3FjDsqiUJASmwBPcEx3Oa664MQDBqNa2qj6uOWOMEytvdzDGJASmaBvZfUJUwQwAuwMQjFrsXb4nL8N8lCJucd8iz+U2AAMdjPPIhJ+5V3mYt4+DsWeeJqqyb6Go1T7jewIzyrnG9+1Gh2M9ztOzd4nDa8gkDQAeDEAkJDDh0JNncCyD/dtjxlzK8SUwOwF8LaV1mhJhegACEdeu8T2JGSJy+b9vfL9q3YruCl8C087g7z089a94YBmXBiAQce2nvicxI/QyPlfUTs/FtbhEnBLAc9jO2Ex3xdWCxmXKcl8AH3b484oUWN3szwn1712awGdknZHsWDjJ6Oe3sRjZEUyFcM0Qg59ZC4184R3heyAhcL6Bgr8I4PSSzxicwFvDQiTzxIE8pW55j35pfA0XevRaVgL4FoBxKu3wJpEnNNvhJK9nsLV8gvdK4AZbvXWzTh8AJwNYbnhvtrHkgnUt6YsTFpXXGPs7RYduO2agwzKXr3SRD1DHotBWN3ql+gjVRCOr81t/ES9O6Hq+maC4zMxyMNdVDGYat6hd8ENu13VEO4XMikfY8kRUx5fZf8mSRQBuMv6MIgMS+IzVAM4CcB6XlKILvuRIzW+qwP39itGbpIVbg6JyRgK4NoGyp1eXtHRNgjsNr6WFfal1BqkKrnEw8ZWeIRnMm+T6xs82nqOs0TOh6oTWAd2OeMzwelRwvgb+FHPSV7CrYKU8bnDjzzecn6xxLrfzLYVlPs+0Jb2T0sDn0fX17KK4JLH8yhzPxZz8O6r8PNcJfQt10Kwi+rCmrPWSaIvH4tjDjK7pj56uJxM8H3PyP1Xl5zVTFFzc+KUl/ZhF50wHsNhYWCK7jw36fV6n62tayZbHokbiCsxRNXzmZO42xb355xjMR9Y4P2b73kptHrt8+uTTBtd1iudrSj2vxJj8thjr0u/EvPHXq8J7t5znSMi7swUJ7xR1xvWOr+sR5VbFJ04RodUxAnn9AfyohuS7V1jgR+LSOfsAuMywQFTpC2ZWIEuIXo7LvG7kcl7EZF2Mm/CEg8/vz8OQlXzeywCGO/jMLDOQ98VSWNopXiFVEDzU8fUpsOuIODGYWxyNIRKZM+jRPMqK9VtpT7Po0ekA+jn6vCwynB0QlyUgLksDExcwadDlNSrnxRFxBOa7RmOqLzHRPRMcBOsrtec87xR1RKPBcvAM3xflmyx/+QolJjqnH3NbnnJcdrIjdgG4GcB7GXsLiXEG3u0ixz8vdVgfe0/LGPLKaABPJpgHFC1Tv5DQZ1WL606Ly7n5kGtceTA7Yvzb6Y7GIKpjOIBbExSXP7IMQqi49t5Wc4dMOCDOWaRlKrKTKNEX6QYAGxKMt8wIvFJ+T4N6Nl/xfVFZ4u6YN8PXuZO88U7jftDltiAlxzCmGlz7sb4vKktcEfNmXOT7AjJMPeMLdzmsOliJfTslldqi+XnY8bWv1eFZt3wi5g1RQpINdQ6OU9Ty5TrV94VXwfEGczDT90VljXfFvCEbAkkVzwojWGVwboLC0sqT0Ef6vvgqudVgLr7s+6Kyxh4O3O/tAfWjSTOnxjy6UYttATDe94XXwFCjlrZn+76wrNHg6JDY5b4vJOV80qicaFe2K6UxtGj5+FujOZns++KyiIsexLsCPJ8SOgNYr2VBQjVbSm22QYJaUpxlNCdrUhLcTh1jHJVSfNL3haSEPgAuSXjbudSucNiqJmn2YLMzi3n5ou+LyyqRy/l3BzeowMQ935XNQmUMD4i6KhlarS3hWaKQE+c6o4HLOavSn5t5ql8Y4ao/UrvDMg5ZYQB7Fm/yJCzRl+ejAPr6nogY/D/jOZrj+wKzzhGOK87/AcDBvi/KI00A3sdcFsuWuV3ZTnqU03xPhgOeNZ4rbVIkwF2Ob9rGHKZdR8uPCzxsN3dkn/A9GQ6ZZzxXU31fYB6YYBB4bGGltTSca4lDD3oKMxPoPdSdbea2d1oDuR1hKTDbtXuUHP9idO5lOYBvADgsQ8WyhgF4D4CLE6qD252tBfCbjL6NLQXme74vLm/MNv4iPJ3yhKax7Mft21MptbkZb21qJTDrqmx9LBxwfAKnd7fzoYneuF/lZ4a4TdgPwAnsYHkzg43bAxCUoj3PHaIm3xNljIXA7AJwku8Lyytf9pBdup6B5s+y0FGThzhCT7bA+Aw9uRCCtZ19OW7OgbAUsRAYbU13gXWyVD2A33uurl5g7GYlgJcAvMAv1ir+/60UpSKrKigBOoyZtNH8jQQwmAfnRvMk82g2Lgs1GW0TgAfZpuNe34NJkEhgJjn+mZ8D8EPHP1NUweCA3+B5tL/muDeUaw/mDWWcd00SOzGRd3AmYw7CH7tZi/fDALb5HkxGuJYvTxEAH+SD7fsNnjd7HcCvABzn+wEIAJcezNNqah8eE7RcStSiL8F+vm96QLgUmHN8X4zomBGswev7y5dVWwXg6wAmqqndW3AhMAUAP1CrnbDpz5IDSVa5z7q1AbiMPZZFx7gQmFm+L0JUzgUAXvSQK5MVa+Ey6FIthSoirsCsVg+v9FEH4OoAvqxps78yH0dUThyBWSMRTy8DWdN3TQBf3NBtKYCPBXokInRqFZgdAE7zPXgRn34AvgDgMWbb+v4yh2BtLFN5M5eUKglQO7UITIHHTkTGOJtp/L6/4D7tfgAHBHzkIG3UIjBX+x60sGMPHli8CsAjzEb1/aW3tJcBXAfgA1zva5vZLdUKzPd1D/LFWG7FrghADFyKyuUATs5Y9bgQqUZg5ubolLkZaXW9o7fKgQBOZHW7JmYJDw34IN82BgsXsUnaAh71n898IGFPpaep7wJwLtMAhPhfoiXVRwDc5LEhWalFgvIUy2HqbeifSjyYyHPp5XugWSGtHkwlNLKubB0r3TUzYDqqpMm+q/V1K992c/nr/fROFrPGbZujzxHx6M6DmcuWsksTHFOmybLAdEbPkljH+JITsaOYj1Mpmxg/AbsstnBrXYRLVwIzkwcYtSwSQtREZ0skLYuEELHpSGAuV/KiEMIFpQLTBuCnynMRQriiKDCbAHza92CEENlink5FCyGsuArA3r4HIYQQwgFZaSAvhAgQCYwQwgwJjBDCDAmMEMIMCYwQwgwJjBDCDAmMEMIMCYwQwgwJjBDCDAmMEMIMCYwQwgwJjBDCDAmMEMIMCYwQwgwJjBDCDAmMEMIMCYwQwgwJjBDCDAmMEMIMCYwQwgwJjBDCDAmMEMIMCYwQwgwJjBDCDAmMEMIMCYwQwgwJjBDCDAmMEMIMCYwQwgwJjBDCDAmMEMIMCYwQwgwJjBDCDAmMEMIMCYwQwgwJjBDCDAmMEMIMCYwQwgwJjBDCDAmMEMIMCYwQwgwJjBDCDAmMEMIMCYwQwgwJjBDCDAmMEMIMCYwQwoz/DgAA//+uo01ywlGsZwAAAABJRU5ErkJggg==;" parent="Vql9rj5d_moiOUUVPlcb-131" vertex="1">
          <mxGeometry x="53" y="21" width="54" height="54" as="geometry" />
        </mxCell>
        <mxCell id="Vql9rj5d_moiOUUVPlcb-138" style="edgeStyle=orthogonalEdgeStyle;rounded=1;orthogonalLoop=1;jettySize=auto;html=1;strokeColor=#545A5E;strokeWidth=3;fontSize=18;fontColor=#F9895C;exitX=1;exitY=0.5;exitDx=0;exitDy=0;entryX=0;entryY=0.75;entryDx=0;entryDy=0;" parent="1" source="zWHwjysgA1_sXkl13r-_-122" target="Vql9rj5d_moiOUUVPlcb-132" edge="1">
          <mxGeometry relative="1" as="geometry">
            <mxPoint x="860" y="80" as="sourcePoint" />
            <mxPoint x="570" y="40" as="targetPoint" />
            <Array as="points" />
          </mxGeometry>
        </mxCell>
        <mxCell id="aZOu54mgNPIQ95392Zl_-8" value="" style="group" parent="1" vertex="1" connectable="0">
          <mxGeometry x="172" y="100" width="258" height="90" as="geometry" />
        </mxCell>
        <mxCell id="aZOu54mgNPIQ95392Zl_-7" value="" style="rounded=1;whiteSpace=wrap;html=1;fillColor=#ffffff;align=left;strokeWidth=3;fontColor=#F9895C;gradientColor=#ffffff;strokeColor=#545A5E;fontStyle=0" parent="aZOu54mgNPIQ95392Zl_-8" vertex="1">
          <mxGeometry x="18" y="18" width="240" height="70" as="geometry" />
        </mxCell>
        <mxCell id="zWHwjysgA1_sXkl13r-_-84" value="" style="group;fontStyle=0" parent="aZOu54mgNPIQ95392Zl_-8" vertex="1" connectable="0">
          <mxGeometry width="245" height="90" as="geometry" />
        </mxCell>
        <mxCell id="aZOu54mgNPIQ95392Zl_-3" value="" style="group;fontStyle=0" parent="zWHwjysgA1_sXkl13r-_-84" vertex="1" connectable="0">
          <mxGeometry x="9" y="9" width="240" height="80" as="geometry" />
        </mxCell>
        <mxCell id="aZOu54mgNPIQ95392Zl_-4" value="" style="rounded=1;whiteSpace=wrap;html=1;fillColor=#ffffff;align=left;strokeWidth=3;fontColor=#F9895C;gradientColor=#ffffff;strokeColor=#545A5E;fontStyle=0" parent="aZOu54mgNPIQ95392Zl_-3" vertex="1">
          <mxGeometry width="240" height="70" as="geometry" />
        </mxCell>
        <mxCell id="zWHwjysgA1_sXkl13r-_-85" value="" style="rounded=1;whiteSpace=wrap;html=1;fillColor=#ffffff;align=left;strokeWidth=3;fontColor=#F9895C;gradientColor=#ffffff;strokeColor=#545A5E;fontStyle=0" parent="zWHwjysgA1_sXkl13r-_-84" vertex="1">
          <mxGeometry width="240" height="70" as="geometry" />
        </mxCell>
        <mxCell id="zWHwjysgA1_sXkl13r-_-87" value="&lt;h3&gt;&lt;span style=&quot;font-weight: normal&quot;&gt;&lt;font style=&quot;font-size: 19px&quot;&gt;RST FILE&lt;/font&gt;&lt;/span&gt;&lt;/h3&gt;" style="text;html=1;strokeColor=none;fillColor=none;align=center;verticalAlign=middle;whiteSpace=wrap;rounded=0;labelBackgroundColor=none;fontFamily=Quantum;fontColor=#F9895C;fontStyle=0" parent="zWHwjysgA1_sXkl13r-_-84" vertex="1">
          <mxGeometry x="50" y="42" width="140" height="20" as="geometry" />
        </mxCell>
        <mxCell id="aZOu54mgNPIQ95392Zl_-1" value="" style="shape=image;verticalLabelPosition=bottom;labelBackgroundColor=default;verticalAlign=top;aspect=fixed;imageAspect=0;image=data:image/svg+xml,PHN2ZyB4bWxuczp4bGluaz0iaHR0cDovL3d3dy53My5vcmcvMTk5OS94bGluayIgeG1sbnM9Imh0dHA6Ly93d3cudzMub3JnLzIwMDAvc3ZnIiB2ZXJzaW9uPSIxLjEiIHZpZXdCb3g9IjAgMCA1MTcgNTAiIGhlaWdodD0iNTBweCIgd2lkdGg9IjUxN3B4Ij4mI3hhOyAgICAmI3hhOyAgICA8dGl0bGU+QXJ0Ym9hcmQ8L3RpdGxlPiYjeGE7ICAgIDxkZXNjPkNyZWF0ZWQgd2l0aCBTa2V0Y2guPC9kZXNjPiYjeGE7ICAgIDxnIGZpbGwtcnVsZT0iZXZlbm9kZCIgZmlsbD0ibm9uZSIgc3Ryb2tlLXdpZHRoPSIxIiBzdHJva2U9Im5vbmUiIGlkPSJBcnRib2FyZCI+JiN4YTsgICAgICAgIDxwYXRoIGZpbGwtcnVsZT0ibm9uemVybyIgZmlsbD0iIzAwMDAwMCIgaWQ9InJlU3RydWN0dXJlZFRleHQiIGQ9Ik0yLjk1NTc5OTk0LDQ5LjYyNDYgQzQuNDgyNTk5OTIsNDkuMTM4OCA2LjAwOTM5OTksNDguODYxMiA3LjYwNTU5OTg4LDQ4LjU4MzYgTDkuNDA5OTk5ODUsNDAuMjU1NjAwMSBDMTAuNjU5MTk5OCwzNC40OTU0MDAyIDEyLjI1NTM5OTgsMzAuODE3MjAwMyAxNS4zMDg5OTk4LDI2Ljg2MTQwMDMgQzE3LjY2ODU5OTcsMjMuODA3ODAwNCAxOS41NDIzOTk3LDIyLjM1MDQwMDQgMjEuMDY5MTk5NywyMi4zNTA0MDA0IEMyMi4xMTAxOTk3LDIyLjM1MDQwMDQgMjIuODA0MTk5NywyMi42OTc0MDA0IDIzLjU2NzU5OTYsMjMuNjY5MDAwNCBMMjQuNTM5MTk5NiwyMy42NjkwMDA0IEMyNC43NDczOTk2LDIxLjAzMTgwMDQgMjUuMDk0Mzk5NiwxOC44MTEwMDA0IDI1LjY0OTU5OTYsMTUuOTY1NjAwNSBDMjQuODg2MTk5NiwxNS42MTg2MDA1IDI0LjYwODU5OTYsMTUuNTQ5MjAwNSAyNC4yNjE1OTk2LDE1LjU0OTIwMDUgQzIyLjExMDE5OTcsMTUuNTQ5MjAwNSAxOS45NTg3OTk3LDE3LjIxNDgwMDUgMTcuNDYwMzk5NywyMC43NTQyMDA0IEMxNS4xMDA3OTk4LDI0LjE1NDgwMDQgMTIuNjcxNzk5OCwyNy40ODYwMDAzIDEwLjkzNjc5OTgsMzEuMjMzNjAwMyBMMTIuNzQxMTk5OCwyMi40ODkyMDA0IEMxMy4wODgxOTk4LDIwLjk2MjQwMDQgMTMuNTczOTk5OCwxOS4zNjYyMDA0IDEzLjU3Mzk5OTgsMTcuNzcwMDAwNCBDMTMuNTczOTk5OCwxNi4zODIwMDA1IDEzLjAxODc5OTgsMTUuNTQ5MjAwNSAxMS45Nzc3OTk4LDE1LjU0OTIwMDUgQzEwLjUyMDM5OTgsMTUuNTQ5MjAwNSA3Ljg4MzE5OTg3LDE3LjAwNjYwMDUgMi43NDc1OTk5NSwyMC42ODQ4MDA0IEwwLjgwNDM5OTk3NCwyMi4wNzI4MDA0IEwxLjI5MDE5OTk3LDIzLjQ2MDgwMDQgTDMuNTEwOTk5OTQsMjIuMDAzNDAwNCBDNS40NTQxOTk5MSwyMC43NTQyMDA0IDYuMjE3NTk5OSwyMC40MDcyMDA0IDYuODQyMTk5ODksMjAuNDA3MjAwNCBDNy41MzYxOTk4OCwyMC40MDcyMDA0IDguMDIxOTk5ODcsMjEuMDMxODAwNCA4LjAyMTk5OTg3LDIxLjkzNDAwMDQgQzguMDIxOTk5ODcsMjUuOTU5MjAwMyA1LjAzNzc5OTkxLDQwLjI1NTYwMDEgMi4yNjE3OTk5NSw0OS4xMzg4IEwyLjk1NTc5OTk0LDQ5LjYyNDYgWiBNMzMuMzUyOTk5NSw0OS43NjM0IEMzNy4zMDg3OTk0LDQ5Ljc2MzQgNDEuMTI1Nzk5NCw0Ny44MjAyIDQ3LjU3OTk5OTMsNDIuNjE1MjAwMSBMNDcuMDI0Nzk5Myw0MS4yOTY2MDAxIEw0NS4zNTkxOTkzLDQyLjQ3NjQwMDEgQzQxLjY4MDk5OTQsNDUuMTEzNjAwMSAzOC4zNDk3OTk0LDQ2LjUwMTYgMzUuODUxMzk5NSw0Ni41MDE2IEMzMi41MjAxOTk1LDQ2LjUwMTYgMzAuNTc2OTk5NSw0My45MzM4MDAxIDMwLjU3Njk5OTUsMzkuNzAwNDAwMSBDMzAuNTc2OTk5NSwzNy44OTYwMDAyIDMwLjcxNTc5OTUsMzYuMTYxMDAwMiAzMS4xMzIxOTk1LDM0LjE0ODQwMDIgTDM2LjgyMjk5OTUsMzIuNzYwNDAwMiBDMzguMDAyNzk5NCwzMi40ODI4MDAyIDM5LjgwNzE5OTQsMzEuNzg4ODAwMiA0MS42MTE1OTk0LDMxLjAyNTQwMDMgQzQ3LjUxMDU5OTMsMjguMzg4MjAwMyA1MC4yMTcxOTkzLDI1LjI2NTIwMDMgNTAuMjE3MTk5MywyMC45NjI0MDA0IEM1MC4yMTcxOTkzLDE3LjcwMDYwMDUgNDcuOTI2OTk5MywxNS41NDkyMDA1IDQ0LjM4NzU5OTMsMTUuNTQ5MjAwNSBDMzkuODc2NTk5NCwxNS41NDkyMDA1IDMyLjMxMTk5OTUsMjAuMTk5MDAwNCAyOS41MzU5OTk2LDI0LjY0MDYwMDQgQzI3LjQ1Mzk5OTYsMjguMDQxMjAwMyAyNS4zMDI1OTk2LDM2LjM2OTIwMDIgMjUuMzAyNTk5Niw0MS4yMjcyMDAxIEMyNS4zMDI1OTk2LDQ2LjU3MSAyOC4zNTYxOTk2LDQ5Ljc2MzQgMzMuMzUyOTk5NSw0OS43NjM0IFogTTMxLjQ3OTE5OTUsMzIuNTUyMjAwMiBMMzIuMTAzNzk5NSwyOS45ODQ0MDAzIEMzMy4yMTQxOTk1LDI1LjMzNDYwMDMgMzQuNjAyMTk5NSwyMi4zNTA0MDA0IDM2LjQ3NTk5OTUsMjAuNjE1NDAwNCBDMzcuNzk0NTk5NCwxOS4zNjYyMDA0IDQwLjAxNTM5OTQsMTguNDY0MDAwNCA0MS43NTAzOTk0LDE4LjQ2NDAwMDQgQzQzLjc2Mjk5OTQsMTguNDY0MDAwNCA0NS4wODE1OTkzLDE5Ljg1MjAwMDQgNDUuMDgxNTk5MywyMi4wNzI4MDA0IEM0NS4wODE1OTkzLDI1LjEyNjQwMDMgNDIuNjUyNTk5NCwyOC4zODgyMDAzIDM5LjA0Mzc5OTQsMzAuMTIzMjAwMyBDMzcuMTAwNTk5NSwzMS4wMjU0MDAzIDM0LjYwMjE5OTUsMzEuODU4MjAwMiAzMS40NzkxOTk1LDMyLjU1MjIwMDIgWiBNNzYuMTEyOTk4OCw0OSBDNzguMDI4MTk4OCw0OSA3OS43NjA5OTg4LDQ4LjQ3NTYgODEuMzExMzk4OCw0Ny40MjY4IEM4Mi44NjE3OTg4LDQ2LjM3OCA4My42MzY5OTg3LDQ1LjAzMjgwMDEgODMuNjM2OTk4Nyw0My4zOTEyMDAxIEw4My42MzY5OTg3LDQzLjM5MTIwMDEgTDgzLjYzNjk5ODcsNDEuODg2NDAwMSBDODMuNjM2OTk4Nyw0MS4yNDgwMDAxIDgzLjU1NzE5ODcsNDAuNjY2NjAwMSA4My4zOTc1OTg3LDQwLjE0MjIwMDEgQzgzLjIzNzk5ODcsMzkuNjE3ODAwMSA4Mi45MDczOTg4LDM5LjAzNjQwMDEgODIuNDA1Nzk4OCwzOC4zOTgwMDAyIEw4Mi40MDU3OTg4LDM4LjM5ODAwMDIgTDYwLjUxNzc5OTEsMTAuNzY0NDAwNiBDNjAuMzgwOTk5MSwxMC41MzY0MDA2IDYwLjMxMjU5OTEsMTAuMzA4NDAwNiA2MC4zMTI1OTkxLDEwLjA4MDQwMDYgQzYwLjMxMjU5OTEsOS4zMDUyMDA1OCA2MC41NjMzOTkxLDguOTE3NjAwNTkgNjEuMDY0OTk5MSw4LjkxNzYwMDU5IEw2MS4wNjQ5OTkxLDguOTE3NjAwNTkgTDc2LjcyODU5ODgsOC45MTc2MDA1OSBDNzcuMjMwMTk4OCwxMC4xNDg4MDA2IDc3LjY0MDU5ODgsMTEuMDYwODAwNiA3Ny45NTk3OTg4LDExLjY1MzYwMDUgQzc5LjAwODU5ODgsMTMuNDMyMDAwNSA4MC4xNDg1OTg4LDE0LjMyMTIwMDUgODEuMzc5Nzk4OCwxNC4zMjEyMDA1IEM4Mi4yOTE3OTg4LDE0LjMyMTIwMDUgODIuOTA3Mzk4OCwxNC4xMzg4MDA1IDgzLjIyNjU5ODcsMTMuNzc0MDAwNSBDODMuNTQ1Nzk4NywxMy40MDkyMDA1IDgzLjcwNTM5ODcsMTIuODg0ODAwNSA4My43MDUzOTg3LDEyLjIwMDgwMDUgQzgzLjcwNTM5ODcsMTEuNzQ0ODAwNSA4My42ODI1OTg3LDEwLjk5MjQwMDYgODMuNjM2OTk4Nyw5Ljk0MzYwMDU3IEM4My42MzY5OTg3LDcuODkxNjAwNiA4Mi44OTU5OTg4LDYuMjYxNDAwNjIgODEuNDEzOTk4OCw1LjA1MzAwMDY0IEM3OS45MzE5OTg4LDMuODQ0NjAwNjYgNzguMjU2MTk4OCwzLjI0MDQwMDY3IDc2LjM4NjU5ODgsMy4yNDA0MDA2NyBMNzYuMzg2NTk4OCwzLjI0MDQwMDY3IEw1OS42Mjg1OTkxLDMuMjQwNDAwNjcgQzU4LjAzMjU5OTEsMy4yNDA0MDA2NyA1Ni43MTAxOTkxLDQuMDI3MDAwNjYgNTUuNjYxMzk5MSw1LjYwMDIwMDYzIEM1NC42MTI1OTkyLDcuMTczNDAwNjEgNTQuMDg4MTk5Miw4Ljg5NDgwMDU5IDU0LjA4ODE5OTIsMTAuNzY0NDAwNiBDNTQuMDg4MTk5MiwxMS4yMjA0MDA2IDU0LjE3OTM5OTIsMTEuNjQyMjAwNSA1NC4zNjE3OTkyLDEyLjAyOTgwMDUgQzU0LjU0NDE5OTIsMTIuNDE3NDAwNSA1NC44NDA1OTkyLDEyLjg2MjAwMDUgNTUuMjUwOTk5MiwxMy4zNjM2MDA1IEw1NS4yNTA5OTkyLDEzLjM2MzYwMDUgTDc4LjM3MDE5ODgsNDMuMzkxMjAwMSBMNjIuMTU5Mzk5MSw0My4zOTEyMDAxIEM2MS4yOTI5OTkxLDQzLjM5MTIwMDEgNjAuNjA4OTk5MSw0Mi43OTg0MDAxIDYwLjEwNzM5OTEsNDEuNjEyODAwMSBDNTkuMDU4NTk5MSwzOS4xOTYwMDAxIDU3Ljg1MDE5OTEsMzcuOTg3NjAwMiA1Ni40ODIxOTkxLDM3Ljk4NzYwMDIgQzU1LjYxNTc5OTEsMzcuOTg3NjAwMiA1NS4wMDAxOTkyLDM4LjM3NTIwMDIgNTQuNjM1Mzk5MiwzOS4xNTA0MDAxIEM1NC4yNzA1OTkyLDM5LjkyNTYwMDEgNTQuMDg4MTk5Miw0MC44ODMyMDAxIDU0LjA4ODE5OTIsNDIuMDIzMjAwMSBDNTQuMDg4MTk5Miw0NC4xMjA4MDAxIDU0Ljc3MjE5OTIsNDUuODA4IDU2LjE0MDE5OTEsNDcuMDg0OCBDNTcuNTA4MTk5MSw0OC4zNjE2IDU5LjE0OTc5OTEsNDkgNjEuMDY0OTk5MSw0OSBMNjEuMDY0OTk5MSw0OSBMNzYuMTEyOTk4OCw0OSBaIE0xMTAuNTE1Nzk4LDQ5IEMxMTEuODAzNzk4LDQ5IDExMy4yMjA1OTgsNDguNTI3NzMzMyAxMTQuNzY2MTk4LDQ3LjU4MzIgQzExNi41MjY0NjUsNDYuNTA5ODY2NyAxMTcuNDA2NTk4LDQ1LjIyMTg2NjcgMTE3LjQwNjU5OCw0My43MTkyMDAxIEMxMTcuNDA2NTk4LDQzLjMzMjgwMDEgMTE3LjQyODA2NSw0Mi44MzkwNjY4IDExNy40NzA5OTgsNDIuMjM4MDAwMSBDMTE3LjUxMzkzMSw0MS42MzY5MzM1IDExNy41MzUzOTgsNDEuMjUwNTMzNSAxMTcuNTM1Mzk4LDQxLjA3ODgwMDIgQzExNy41MzUzOTgsNDAuMjYzMDY2OCAxMTcuMzUyOTMxLDM5LjY1MTI2NjkgMTE2Ljk4Nzk5OCwzOS4yNDM0MDAyIEMxMTYuNjIzMDY1LDM4LjgzNTUzMzUgMTE1LjkyNTM5OCwzOC42MzE2MDAyIDExNC44OTQ5OTgsMzguNjMxNjAwMiBDMTE0LjM3OTc5OCwzOC42MzE2MDAyIDExMy4zNzA4NjUsMzkuNzA0OTMzNSAxMTEuODY4MTk4LDQxLjg1MTYwMDEgQzExMS4yMjQxOTgsNDIuNzk2MTMzNSAxMTAuNDcyODY1LDQzLjI2ODQwMDEgMTA5LjYxNDE5OCw0My4yNjg0MDAxIEwxMDkuNjE0MTk4LDQzLjI2ODQwMDEgTDEwMy40OTYxOTgsNDMuMjY4NDAwMSBDMTAyLjc2NjMzMiw0My4yNjg0MDAxIDEwMi4wOTAxMzIsNDMuMDAwMDY2OCAxMDEuNDY3NTk4LDQyLjQ2MzQwMDEgQzEwMC44NDUwNjUsNDEuOTI2NzMzNSAxMDAuNTMzNzk4LDQxLjMzNjQwMDIgMTAwLjUzMzc5OCw0MC42OTI0MDAyIEwxMDAuNTMzNzk4LDQwLjY5MjQwMDIgTDEwMC41MzM3OTgsMjIuMjc0MDAwNiBMMTEyLjY0MDk5OCwyMi4yNzQwMDA2IEMxMTMuMjQyMDY1LDIyLjI3NDAwMDYgMTEzLjczNTc5OCwyMi4wMTY0MDA2IDExNC4xMjIxOTgsMjEuNTAxMjAwNiBDMTE0LjUwODU5OCwyMC45ODYwMDA2IDExNC43MDE3OTgsMjAuMzg0OTMzOSAxMTQuNzAxNzk4LDE5LjY5ODAwMDYgQzExNC43MDE3OTgsMTkuMDExMDY3MyAxMTQuNDU0OTMxLDE4LjM1NjMzNCAxMTMuOTYxMTk4LDE3LjczMzgwMDYgQzExMy40Njc0NjUsMTcuMTExMjY3MyAxMTMuMDI3Mzk4LDE2LjgwMDAwMDcgMTEyLjY0MDk5OCwxNi44MDAwMDA3IEwxMTIuNjQwOTk4LDE2LjgwMDAwMDcgTDEwMC41MzM3OTgsMTYuODAwMDAwNyBMMTAwLjUzMzc5OCw5LjI2NTIwMDgyIEMxMDAuNTMzNzk4LDguNzUwMDAwODMgMTAwLjI5NzY2NSw4LjMyMDY2NzUxIDk5LjgyNTM5ODQsNy45NzcyMDA4NSBDOTkuMzUzMTMxNyw3LjYzMzczNDE5IDk4LjgzNzkzMTcsNy40NjIwMDA4NiA5OC4yNzk3OTg0LDcuNDYyMDAwODYgQzk3LjQ2NDA2NTEsNy40NjIwMDA4NiA5Ni43NzcxMzE4LDcuNjEyMjY3NTIgOTYuMjE4OTk4NSw3LjkxMjgwMDg1IEM5NS42NjA4NjUxLDguMjEzMzM0MTggOTUuMzgxNzk4NSw4LjY2NDEzNDE3IDk1LjM4MTc5ODUsOS4yNjUyMDA4MiBMOTUuMzgxNzk4NSw5LjI2NTIwMDgyIEw5NS4zODE3OTg1LDE2LjgwMDAwMDcgTDkxLjE5NTc5ODYsMTYuODAwMDAwNyBDOTAuNTA4ODY1MiwxNi44MDAwMDA3IDkwLjAyNTg2NTMsMTcuMDY4MzM0IDg5Ljc0Njc5ODYsMTcuNjA1MDAwNyBDODkuNDY3NzMxOSwxOC4xNDE2NjczIDg5LjMyODE5ODYsMTguODM5MzM0IDg5LjMyODE5ODYsMTkuNjk4MDAwNiBDODkuMzI4MTk4NiwyMC4zODQ5MzM5IDg5LjQ2NzczMTksMjAuOTg2MDAwNiA4OS43NDY3OTg2LDIxLjUwMTIwMDYgQzkwLjAyNTg2NTMsMjIuMDE2NDAwNiA5MC40NDQ0NjUzLDIyLjI3NDAwMDYgOTEuMDAyNTk4NiwyMi4yNzQwMDA2IEw5MS4wMDI1OTg2LDIyLjI3NDAwMDYgTDk1LjI1Mjk5ODUsMjIuMjc0MDAwNiBMOTUuMjUyOTk4NSw0Mi4wNDQ4MDAxIEM5NS4yNTI5OTg1LDQzLjg5MDkzMzQgOTYuMTAwOTMxOCw0NS41MTE2NjY3IDk3Ljc5Njc5ODQsNDYuOTA3IEM5OS40OTI2NjUxLDQ4LjMwMjMzMzMgMTAxLjM5MjQ2NSw0OSAxMDMuNDk2MTk4LDQ5IEwxMDMuNDk2MTk4LDQ5IEwxMTAuNTE1Nzk4LDQ5IFogTTEyNi45MzQxOTgsNDkuMjU3NiBDMTI3LjYyMTEzMSw0OS4yNTc2IDEyOC4yNDM2NjQsNDkuMTA3MzMzMyAxMjguODAxNzk4LDQ4LjgwNjggQzEyOS4zNTk5MzEsNDguNTA2MjY2NyAxMjkuNjM4OTk4LDQ4LjA3NjkzMzQgMTI5LjYzODk5OCw0Ny41MTg4IEwxMjkuNjM4OTk4LDQ3LjUxODggTDEyOS42Mzg5OTgsMzAuMDY2NDAwNCBMMTM4LjM5NzM5OCwyMy4xMTEyMDA1IEMxMzkuMDg0MzMxLDIyLjU1MzA2NzIgMTM5LjY5NjEzMSwyMi4xODgxMzM5IDE0MC4yMzI3OTgsMjIuMDE2NDAwNiBDMTQwLjc2OTQ2NCwyMS44NDQ2NjcyIDE0MS40NjcxMzEsMjEuNzU4ODAwNiAxNDIuMzI1Nzk3LDIxLjc1ODgwMDYgQzE0NS4yODgxOTcsMjIuMDE2NDAwNiAxNDYuNzY5Mzk3LDIzLjk5MTMzMzkgMTQ2Ljc2OTM5NywyNy42ODM2MDA0IEMxNDYuNzY5Mzk3LDI4LjE1NTg2NzEgMTQ3LjA2OTkzMSwyOC41NzQ0NjcxIDE0Ny42NzA5OTcsMjguOTM5NDAwNCBDMTQ4LjI3MjA2NCwyOS4zMDQzMzM3IDE0OC45MTYwNjQsMjkuNDg2ODAwNCAxNDkuNjAyOTk3LDI5LjQ4NjgwMDQgQzE1MC4yODk5MzEsMjkuNDg2ODAwNCAxNTAuOTAxNzMxLDI5LjMyNTgwMDQgMTUxLjQzODM5NywyOS4wMDM4MDA0IEMxNTEuOTc1MDY0LDI4LjY4MTgwMDQgMTUyLjI0MzM5NywyOC4yMjAyNjcxIDE1Mi4yNDMzOTcsMjcuNjE5MjAwNCBDMTUyLjI0MzM5NywyMy4xOTcwNjcyIDE1MS4xMDU2NjQsMjAuMDg0NDAwNiAxNDguODMwMTk3LDE4LjI4MTIwMDYgQzE0Ny4yODQ1OTcsMTcuMDc5MDY3MyAxNDUuMTE2NDY0LDE2LjQ3ODAwMDcgMTQyLjMyNTc5NywxNi40NzgwMDA3IEMxNDEuOTM5Mzk3LDE2LjQ3ODAwMDcgMTQxLjM4MTI2NCwxNi40NTY1MzQgMTQwLjY1MTM5OCwxNi40MTM2MDA3IEMxNDAuMTc5MTMxLDE2LjQxMzYwMDcgMTM5Ljc0OTc5OCwxNi40NTY1MzQgMTM5LjM2MzM5OCwxNi41NDI0MDA3IEMxMzguOTc2OTk4LDE2LjYyODI2NzMgMTM4LjYxMjA2NCwxNi44MDAwMDA3IDEzOC4yNjg1OTgsMTcuMDU3NjAwNyBMMTM4LjI2ODU5OCwxNy4wNTc2MDA3IEwxMjkuNjM4OTk4LDIzLjExMTIwMDUgTDEyOS42Mzg5OTgsMjAuNDA2NDAwNiBDMTI5LjYzODk5OCwxOS42NzY1MzM5IDEyOS40MDI4NjQsMTkuMDExMDY3MyAxMjguOTMwNTk4LDE4LjQxMDAwMDYgQzEyOC40NTgzMzEsMTcuODA4OTM0IDEyNy43OTI4NjQsMTcuNTA4NDAwNyAxMjYuOTM0MTk4LDE3LjUwODQwMDcgQzEyNi4wMzI1OTgsMTcuNTA4NDAwNyAxMjUuMzI0MTk4LDE3Ljc0NDUzNCAxMjQuODA4OTk4LDE4LjIxNjgwMDYgQzEyNC4yOTM3OTgsMTguNjg5MDY3MyAxMjQuMDM2MTk4LDE5LjQ0MDQwMDYgMTI0LjAzNjE5OCwyMC40NzA4MDA2IEwxMjQuMDM2MTk4LDIwLjQ3MDgwMDYgTDEyNC4wMzYxOTgsNDcuNTE4OCBDMTI0LjAzNjE5OCw0OC4xMTk4NjY3IDEyNC4zMzY3MzEsNDguNTU5OTMzMyAxMjQuOTM3Nzk4LDQ4LjgzOSBDMTI1LjUzODg2NCw0OS4xMTgwNjY3IDEyNi4yMDQzMzEsNDkuMjU3NiAxMjYuOTM0MTk4LDQ5LjI1NzYgWiBNMTcxLjM3MDE5Nyw0OS4xOTMyIEwxODEuNzM4NTk3LDQzLjUyNjAwMDEgTDE4MS43Mzg1OTcsNDYuNTUyODAwMSBDMTgxLjczODU5Nyw0OC4zMTMwNjY3IDE4Mi42MTg3Myw0OS4xOTMyIDE4NC4zNzg5OTcsNDkuMTkzMiBDMTg1LjIzNzY2Myw0OS4xOTMyIDE4NS45NDYwNjMsNDguODA2OCAxODYuNTA0MTk3LDQ4LjAzNCBDMTg2Ljg5MDU5Nyw0Ny40NzU4NjY3IDE4Ny4wODM3OTcsNDYuOTgyMTMzNCAxODcuMDgzNzk3LDQ2LjU1MjgwMDEgTDE4Ny4wODM3OTcsNDYuNTUyODAwMSBMMTg3LjA4Mzc5NywxOC4xNTI0MDA2IEMxODcuMDgzNzk3LDE2LjczNTYwMDcgMTg2LjI0NjU5NywxNi4wMjcyMDA3IDE4NC41NzIxOTcsMTYuMDI3MjAwNyBDMTgyLjcyNjA2MywxNi4wMjcyMDA3IDE4MS44MDI5OTcsMTYuNzM1NjAwNyAxODEuODAyOTk3LDE4LjE1MjQwMDYgTDE4MS44MDI5OTcsMTguMTUyNDAwNiBMMTgxLjgwMjk5NywzNy43OTQ0MDAyIEwxNzIuNDY0OTk3LDQyLjg4MjAwMDEgQzE3MS45NDk3OTcsNDMuMTgyNTMzNSAxNzEuNDY2Nzk3LDQzLjM3NTczMzQgMTcxLjAxNTk5Nyw0My40NjE2MDAxIEMxNzAuNTY1MTk3LDQzLjU0NzQ2NjggMTcwLjA4MjE5Nyw0My41OTA0MDAxIDE2OS41NjY5OTcsNDMuNTkwNDAwMSBDMTY4LjI3ODk5Nyw0My41OTA0MDAxIDE2Ny4xODQxOTcsNDMuMjI1NDY2OCAxNjYuMjgyNTk3LDQyLjQ5NTYwMDEgQzE2NS4zODA5OTcsNDEuNzY1NzMzNSAxNjQuOTMwMTk3LDQwLjg2NDEzMzUgMTY0LjkzMDE5NywzOS43OTA4MDAyIEwxNjQuOTMwMTk3LDM5Ljc5MDgwMDIgTDE2NC45MzAxOTcsMTcuODk0ODAwNiBDMTY0LjkzMDE5NywxNy4yOTM3MzQgMTY0LjY5NDA2NCwxNi44MzIyMDA3IDE2NC4yMjE3OTcsMTYuNTEwMjAwNyBDMTYzLjc0OTUzLDE2LjE4ODIwMDcgMTYzLjE2OTkzLDE2LjAyNzIwMDcgMTYyLjQ4Mjk5NywxNi4wMjcyMDA3IEMxNjEuNzk2MDY0LDE2LjAyNzIwMDcgMTYxLjE5NDk5NywxNi4xODgyMDA3IDE2MC42Nzk3OTcsMTYuNTEwMjAwNyBDMTYwLjE2NDU5NywxNi44MzIyMDA3IDE1OS45MDY5OTcsMTcuMjkzNzM0IDE1OS45MDY5OTcsMTcuODk0ODAwNiBMMTU5LjkwNjk5NywxNy44OTQ4MDA2IEwxNTkuOTA2OTk3LDQwLjA0ODQwMDIgQzE1OS45MDY5OTcsNDIuNDA5NzMzNSAxNjAuNjU4MzMsNDQuNTI0MjAwMSAxNjIuMTYwOTk3LDQ2LjM5MTgwMDEgQzE2My42NjM2NjQsNDguMjU5NCAxNjUuNDg4MzMsNDkuMTkzMiAxNjcuNjM0OTk3LDQ5LjE5MzIgTDE2Ny42MzQ5OTcsNDkuMTkzMiBMMTcxLjM3MDE5Nyw0OS4xOTMyIFogTTIxOS40MTI1OTYsNDkgQzIyMC4wOTk1MjksNDkgMjIwLjY0NjkyOSw0OC42ODg3MzMzIDIyMS4wNTQ3OTYsNDguMDY2MiBDMjIxLjQ2MjY2Miw0Ny40NDM2NjY3IDIyMS42NjY1OTYsNDYuNzI0NTMzNCAyMjEuNjY2NTk2LDQ1LjkwODgwMDEgQzIyMS42NjY1OTYsNDUuMjIxODY2NyAyMjEuNDg0MTI5LDQ0LjYxMDA2NjggMjIxLjExOTE5Niw0NC4wNzM0MDAxIEMyMjAuNzU0MjYzLDQzLjUzNjczMzQgMjIwLjI5MjcyOSw0My4yNjg0MDAxIDIxOS43MzQ1OTYsNDMuMjY4NDAwMSBMMjE5LjczNDU5Niw0My4yNjg0MDAxIEwyMDUuNjMwOTk2LDQzLjI2ODQwMDEgTDIwMC4zNTAxOTYsMzcuMzQzNjAwMiBDMTk5LjgzNDk5NiwzNi43ODU0NjY5IDE5OS40NTkzMywzNi4xMzA3MzM2IDE5OS4yMjMxOTYsMzUuMzc5NDAwMyBDMTk4Ljk4NzA2MywzNC42MjgwNjcgMTk4Ljg2ODk5NiwzMy45NzMzMzM2IDE5OC44Njg5OTYsMzMuNDE1MjAwMyBMMTk4Ljg2ODk5NiwzMy40MTUyMDAzIEwxOTguODY4OTk2LDMyLjMyMDQwMDMgQzE5OC44Njg5OTYsMzEuMjkwMDAwNCAxOTguOTY1NTk2LDMwLjUxNzIwMDQgMTk5LjE1ODc5NiwzMC4wMDIwMDA0IEMxOTkuMzUxOTk2LDI5LjQ4NjgwMDQgMTk5LjYyMDMzLDI5LjA3ODkzMzcgMTk5Ljk2Mzc5NiwyOC43Nzg0MDA0IEwxOTkuOTYzNzk2LDI4Ljc3ODQwMDQgTDIwNS41MDIxOTYsMjMuNDMzMjAwNSBMMjE4LjEyNDU5NiwyMy40MzMyMDA1IEMyMTkuMzY5NjYzLDIzLjQzMzIwMDUgMjIwLjIyODMyOSwyMy4xNjQ4NjcyIDIyMC43MDA1OTYsMjIuNjI4MjAwNSBDMjIxLjE3Mjg2MiwyMi4wOTE1MzM5IDIyMS40MDg5OTYsMjEuMzA4MDAwNiAyMjEuNDA4OTk2LDIwLjI3NzYwMDYgQzIyMS40MDg5OTYsMTkuNTA0ODAwNiAyMjEuMDc2MjYzLDE4LjgyODYwMDYgMjIwLjQxMDc5NiwxOC4yNDkwMDA2IEMyMTkuNzQ1MzI5LDE3LjY2OTQwMDYgMjE4Ljk4MzI2MywxNy4zNzk2MDA3IDIxOC4xMjQ1OTYsMTcuMzc5NjAwNyBMMjE4LjEyNDU5NiwxNy4zNzk2MDA3IEwyMDUuNTAyMTk2LDE3LjM3OTYwMDcgQzIwNS4wNzI4NjMsMTcuMzc5NjAwNyAyMDQuNTY4Mzk2LDE3LjQ3NjIwMDcgMjAzLjk4ODc5NiwxNy42Njk0MDA2IEMyMDMuNDA5MTk2LDE3Ljg2MjYwMDYgMjAyLjkyNjE5NiwxOC4xNTI0MDA2IDIwMi41Mzk3OTYsMTguNTM4ODAwNiBMMjAyLjUzOTc5NiwxOC41Mzg4MDA2IEwxOTUuNTIwMTk2LDI1LjgxNjAwMDUgQzE5NC43MDQ0NjMsMjYuNjc0NjY3MSAxOTQuMTM1NTk2LDI3LjgyMzEzMzggMTkzLjgxMzU5NiwyOS4yNjE0MDA0IEMxOTMuNDkxNTk2LDMwLjY5OTY2NyAxOTMuMzMwNTk2LDMyLjA4NDI2NyAxOTMuMzMwNTk2LDMzLjQxNTIwMDMgQzE5My4zMzA1OTYsMzQuNDg4NTMzNiAxOTMuNTEzMDYzLDM1Ljc1NTA2NjkgMTkzLjg3Nzk5NiwzNy4yMTQ4MDAyIEMxOTQuMjQyOTMsMzguNjc0NTMzNSAxOTQuNjQwMDYzLDM5LjYxOTA2NjkgMTk1LjA2OTM5Niw0MC4wNDg0MDAyIEwxOTUuMDY5Mzk2LDQwLjA0ODQwMDIgTDIwMy4wNTQ5OTYsNDguMDM0IEMyMDMuNDg0MzMsNDguNDYzMzMzMyAyMDMuOTEzNjYzLDQ4LjczMTY2NjcgMjA0LjM0Mjk5Niw0OC44MzkgQzIwNC43NzIzMyw0OC45NDYzMzMzIDIwNS4zNzMzOTYsNDkgMjA2LjE0NjE5Niw0OSBMMjA2LjE0NjE5Niw0OSBMMjE5LjQxMjU5Niw0OSBaIE0yNTAuNzc4OTk1LDQ5IEMyNTIuMDY2OTk1LDQ5IDI1My40ODM3OTUsNDguNTI3NzMzMyAyNTUuMDI5Mzk1LDQ3LjU4MzIgQzI1Ni43ODk2NjIsNDYuNTA5ODY2NyAyNTcuNjY5Nzk1LDQ1LjIyMTg2NjcgMjU3LjY2OTc5NSw0My43MTkyMDAxIEMyNTcuNjY5Nzk1LDQzLjMzMjgwMDEgMjU3LjY5MTI2Miw0Mi44MzkwNjY4IDI1Ny43MzQxOTUsNDIuMjM4MDAwMSBDMjU3Ljc3NzEyOCw0MS42MzY5MzM1IDI1Ny43OTg1OTUsNDEuMjUwNTMzNSAyNTcuNzk4NTk1LDQxLjA3ODgwMDIgQzI1Ny43OTg1OTUsNDAuMjYzMDY2OCAyNTcuNjE2MTI4LDM5LjY1MTI2NjkgMjU3LjI1MTE5NSwzOS4yNDM0MDAyIEMyNTYuODg2MjYyLDM4LjgzNTUzMzUgMjU2LjE4ODU5NSwzOC42MzE2MDAyIDI1NS4xNTgxOTUsMzguNjMxNjAwMiBDMjU0LjY0Mjk5NSwzOC42MzE2MDAyIDI1My42MzQwNjIsMzkuNzA0OTMzNSAyNTIuMTMxMzk1LDQxLjg1MTYwMDEgQzI1MS40ODczOTUsNDIuNzk2MTMzNSAyNTAuNzM2MDYyLDQzLjI2ODQwMDEgMjQ5Ljg3NzM5NSw0My4yNjg0MDAxIEwyNDkuODc3Mzk1LDQzLjI2ODQwMDEgTDI0My43NTkzOTUsNDMuMjY4NDAwMSBDMjQzLjAyOTUyOSw0My4yNjg0MDAxIDI0Mi4zNTMzMjksNDMuMDAwMDY2OCAyNDEuNzMwNzk1LDQyLjQ2MzQwMDEgQzI0MS4xMDgyNjIsNDEuOTI2NzMzNSAyNDAuNzk2OTk1LDQxLjMzNjQwMDIgMjQwLjc5Njk5NSw0MC42OTI0MDAyIEwyNDAuNzk2OTk1LDQwLjY5MjQwMDIgTDI0MC43OTY5OTUsMjIuMjc0MDAwNiBMMjUyLjkwNDE5NSwyMi4yNzQwMDA2IEMyNTMuNTA1MjYyLDIyLjI3NDAwMDYgMjUzLjk5ODk5NSwyMi4wMTY0MDA2IDI1NC4zODUzOTUsMjEuNTAxMjAwNiBDMjU0Ljc3MTc5NSwyMC45ODYwMDA2IDI1NC45NjQ5OTUsMjAuMzg0OTMzOSAyNTQuOTY0OTk1LDE5LjY5ODAwMDYgQzI1NC45NjQ5OTUsMTkuMDExMDY3MyAyNTQuNzE4MTI5LDE4LjM1NjMzNCAyNTQuMjI0Mzk1LDE3LjczMzgwMDYgQzI1My43MzA2NjIsMTcuMTExMjY3MyAyNTMuMjkwNTk1LDE2LjgwMDAwMDcgMjUyLjkwNDE5NSwxNi44MDAwMDA3IEwyNTIuOTA0MTk1LDE2LjgwMDAwMDcgTDI0MC43OTY5OTUsMTYuODAwMDAwNyBMMjQwLjc5Njk5NSw5LjI2NTIwMDgyIEMyNDAuNzk2OTk1LDguNzUwMDAwODMgMjQwLjU2MDg2Miw4LjMyMDY2NzUxIDI0MC4wODg1OTUsNy45NzcyMDA4NSBDMjM5LjYxNjMyOSw3LjYzMzczNDE5IDIzOS4xMDExMjksNy40NjIwMDA4NiAyMzguNTQyOTk2LDcuNDYyMDAwODYgQzIzNy43MjcyNjIsNy40NjIwMDA4NiAyMzcuMDQwMzI5LDcuNjEyMjY3NTIgMjM2LjQ4MjE5Niw3LjkxMjgwMDg1IEMyMzUuOTI0MDYyLDguMjEzMzM0MTggMjM1LjY0NDk5Niw4LjY2NDEzNDE3IDIzNS42NDQ5OTYsOS4yNjUyMDA4MiBMMjM1LjY0NDk5Niw5LjI2NTIwMDgyIEwyMzUuNjQ0OTk2LDE2LjgwMDAwMDcgTDIzMS40NTg5OTYsMTYuODAwMDAwNyBDMjMwLjc3MjA2MiwxNi44MDAwMDA3IDIzMC4yODkwNjIsMTcuMDY4MzM0IDIzMC4wMDk5OTYsMTcuNjA1MDAwNyBDMjI5LjczMDkyOSwxOC4xNDE2NjczIDIyOS41OTEzOTYsMTguODM5MzM0IDIyOS41OTEzOTYsMTkuNjk4MDAwNiBDMjI5LjU5MTM5NiwyMC4zODQ5MzM5IDIyOS43MzA5MjksMjAuOTg2MDAwNiAyMzAuMDA5OTk2LDIxLjUwMTIwMDYgQzIzMC4yODkwNjIsMjIuMDE2NDAwNiAyMzAuNzA3NjYyLDIyLjI3NDAwMDYgMjMxLjI2NTc5NiwyMi4yNzQwMDA2IEwyMzEuMjY1Nzk2LDIyLjI3NDAwMDYgTDIzNS41MTYxOTYsMjIuMjc0MDAwNiBMMjM1LjUxNjE5Niw0Mi4wNDQ4MDAxIEMyMzUuNTE2MTk2LDQzLjg5MDkzMzQgMjM2LjM2NDEyOSw0NS41MTE2NjY3IDIzOC4wNTk5OTYsNDYuOTA3IEMyMzkuNzU1ODYyLDQ4LjMwMjMzMzMgMjQxLjY1NTY2Miw0OSAyNDMuNzU5Mzk1LDQ5IEwyNDMuNzU5Mzk1LDQ5IEwyNTAuNzc4OTk1LDQ5IFogTTI3Ny4zMTE3OTUsNDkuMTkzMiBMMjg3LjY4MDE5NCw0My41MjYwMDAxIEwyODcuNjgwMTk0LDQ2LjU1MjgwMDEgQzI4Ny42ODAxOTQsNDguMzEzMDY2NyAyODguNTYwMzI4LDQ5LjE5MzIgMjkwLjMyMDU5NCw0OS4xOTMyIEMyOTEuMTc5MjYxLDQ5LjE5MzIgMjkxLjg4NzY2MSw0OC44MDY4IDI5Mi40NDU3OTQsNDguMDM0IEMyOTIuODMyMTk0LDQ3LjQ3NTg2NjcgMjkzLjAyNTM5NCw0Ni45ODIxMzM0IDI5My4wMjUzOTQsNDYuNTUyODAwMSBMMjkzLjAyNTM5NCw0Ni41NTI4MDAxIEwyOTMuMDI1Mzk0LDE4LjE1MjQwMDYgQzI5My4wMjUzOTQsMTYuNzM1NjAwNyAyOTIuMTg4MTk0LDE2LjAyNzIwMDcgMjkwLjUxMzc5NCwxNi4wMjcyMDA3IEMyODguNjY3NjYxLDE2LjAyNzIwMDcgMjg3Ljc0NDU5NCwxNi43MzU2MDA3IDI4Ny43NDQ1OTQsMTguMTUyNDAwNiBMMjg3Ljc0NDU5NCwxOC4xNTI0MDA2IEwyODcuNzQ0NTk0LDM3Ljc5NDQwMDIgTDI3OC40MDY1OTUsNDIuODgyMDAwMSBDMjc3Ljg5MTM5NSw0My4xODI1MzM1IDI3Ny40MDgzOTUsNDMuMzc1NzMzNCAyNzYuOTU3NTk1LDQzLjQ2MTYwMDEgQzI3Ni41MDY3OTUsNDMuNTQ3NDY2OCAyNzYuMDIzNzk1LDQzLjU5MDQwMDEgMjc1LjUwODU5NSw0My41OTA0MDAxIEMyNzQuMjIwNTk1LDQzLjU5MDQwMDEgMjczLjEyNTc5NSw0My4yMjU0NjY4IDI3Mi4yMjQxOTUsNDIuNDk1NjAwMSBDMjcxLjMyMjU5NSw0MS43NjU3MzM1IDI3MC44NzE3OTUsNDAuODY0MTMzNSAyNzAuODcxNzk1LDM5Ljc5MDgwMDIgTDI3MC44NzE3OTUsMzkuNzkwODAwMiBMMjcwLjg3MTc5NSwxNy44OTQ4MDA2IEMyNzAuODcxNzk1LDE3LjI5MzczNCAyNzAuNjM1NjYyLDE2LjgzMjIwMDcgMjcwLjE2MzM5NSwxNi41MTAyMDA3IEMyNjkuNjkxMTI4LDE2LjE4ODIwMDcgMjY5LjExMTUyOCwxNi4wMjcyMDA3IDI2OC40MjQ1OTUsMTYuMDI3MjAwNyBDMjY3LjczNzY2MiwxNi4wMjcyMDA3IDI2Ny4xMzY1OTUsMTYuMTg4MjAwNyAyNjYuNjIxMzk1LDE2LjUxMDIwMDcgQzI2Ni4xMDYxOTUsMTYuODMyMjAwNyAyNjUuODQ4NTk1LDE3LjI5MzczNCAyNjUuODQ4NTk1LDE3Ljg5NDgwMDYgTDI2NS44NDg1OTUsMTcuODk0ODAwNiBMMjY1Ljg0ODU5NSw0MC4wNDg0MDAyIEMyNjUuODQ4NTk1LDQyLjQwOTczMzUgMjY2LjU5OTkyOCw0NC41MjQyMDAxIDI2OC4xMDI1OTUsNDYuMzkxODAwMSBDMjY5LjYwNTI2Miw0OC4yNTk0IDI3MS40Mjk5MjgsNDkuMTkzMiAyNzMuNTc2NTk1LDQ5LjE5MzIgTDI3My41NzY1OTUsNDkuMTkzMiBMMjc3LjMxMTc5NSw0OS4xOTMyIFogTTMwMy4yNjQ5OTQsNDkuMjU3NiBDMzAzLjk1MTkyNyw0OS4yNTc2IDMwNC41NzQ0NjEsNDkuMTA3MzMzMyAzMDUuMTMyNTk0LDQ4LjgwNjggQzMwNS42OTA3MjcsNDguNTA2MjY2NyAzMDUuOTY5Nzk0LDQ4LjA3NjkzMzQgMzA1Ljk2OTc5NCw0Ny41MTg4IEwzMDUuOTY5Nzk0LDQ3LjUxODggTDMwNS45Njk3OTQsMzAuMDY2NDAwNCBMMzE0LjcyODE5NCwyMy4xMTEyMDA1IEMzMTUuNDE1MTI3LDIyLjU1MzA2NzIgMzE2LjAyNjkyNywyMi4xODgxMzM5IDMxNi41NjM1OTQsMjIuMDE2NDAwNiBDMzE3LjEwMDI2MSwyMS44NDQ2NjcyIDMxNy43OTc5MjcsMjEuNzU4ODAwNiAzMTguNjU2NTk0LDIxLjc1ODgwMDYgQzMyMS42MTg5OTQsMjIuMDE2NDAwNiAzMjMuMTAwMTk0LDIzLjk5MTMzMzkgMzIzLjEwMDE5NCwyNy42ODM2MDA0IEMzMjMuMTAwMTk0LDI4LjE1NTg2NzEgMzIzLjQwMDcyNywyOC41NzQ0NjcxIDMyNC4wMDE3OTQsMjguOTM5NDAwNCBDMzI0LjYwMjg2LDI5LjMwNDMzMzcgMzI1LjI0Njg2LDI5LjQ4NjgwMDQgMzI1LjkzMzc5NCwyOS40ODY4MDA0IEMzMjYuNjIwNzI3LDI5LjQ4NjgwMDQgMzI3LjIzMjUyNywyOS4zMjU4MDA0IDMyNy43NjkxOTQsMjkuMDAzODAwNCBDMzI4LjMwNTg2LDI4LjY4MTgwMDQgMzI4LjU3NDE5NCwyOC4yMjAyNjcxIDMyOC41NzQxOTQsMjcuNjE5MjAwNCBDMzI4LjU3NDE5NCwyMy4xOTcwNjcyIDMyNy40MzY0NiwyMC4wODQ0MDA2IDMyNS4xNjA5OTQsMTguMjgxMjAwNiBDMzIzLjYxNTM5NCwxNy4wNzkwNjczIDMyMS40NDcyNiwxNi40NzgwMDA3IDMxOC42NTY1OTQsMTYuNDc4MDAwNyBDMzE4LjI3MDE5NCwxNi40NzgwMDA3IDMxNy43MTIwNjEsMTYuNDU2NTM0IDMxNi45ODIxOTQsMTYuNDEzNjAwNyBDMzE2LjUwOTkyNywxNi40MTM2MDA3IDMxNi4wODA1OTQsMTYuNDU2NTM0IDMxNS42OTQxOTQsMTYuNTQyNDAwNyBDMzE1LjMwNzc5NCwxNi42MjgyNjczIDMxNC45NDI4NjEsMTYuODAwMDAwNyAzMTQuNTk5Mzk0LDE3LjA1NzYwMDcgTDMxNC41OTkzOTQsMTcuMDU3NjAwNyBMMzA1Ljk2OTc5NCwyMy4xMTEyMDA1IEwzMDUuOTY5Nzk0LDIwLjQwNjQwMDYgQzMwNS45Njk3OTQsMTkuNjc2NTMzOSAzMDUuNzMzNjYxLDE5LjAxMTA2NzMgMzA1LjI2MTM5NCwxOC40MTAwMDA2IEMzMDQuNzg5MTI3LDE3LjgwODkzNCAzMDQuMTIzNjYxLDE3LjUwODQwMDcgMzAzLjI2NDk5NCwxNy41MDg0MDA3IEMzMDIuMzYzMzk0LDE3LjUwODQwMDcgMzAxLjY1NDk5NCwxNy43NDQ1MzQgMzAxLjEzOTc5NCwxOC4yMTY4MDA2IEMzMDAuNjI0NTk0LDE4LjY4OTA2NzMgMzAwLjM2Njk5NCwxOS40NDA0MDA2IDMwMC4zNjY5OTQsMjAuNDcwODAwNiBMMzAwLjM2Njk5NCwyMC40NzA4MDA2IEwzMDAuMzY2OTk0LDQ3LjUxODggQzMwMC4zNjY5OTQsNDguMTE5ODY2NyAzMDAuNjY3NTI4LDQ4LjU1OTkzMzMgMzAxLjI2ODU5NCw0OC44MzkgQzMwMS44Njk2NjEsNDkuMTE4MDY2NyAzMDIuNTM1MTI4LDQ5LjI1NzYgMzAzLjI2NDk5NCw0OS4yNTc2IFogTTM2MC4xNjA1OTMsNDkgQzM2MC43NjE2Niw0OSAzNjEuMjg3NTkzLDQ4LjY1NjUzMzMgMzYxLjczODM5Myw0Ny45Njk2IEMzNjIuMTg5MTkzLDQ3LjI4MjY2NjcgMzYyLjQxNDU5Myw0Ni42Mzg2NjY3IDM2Mi40MTQ1OTMsNDYuMDM3NjAwMSBDMzYyLjQxNDU5Myw0NS41NjUzMzM0IDM2Mi4xNTY5OTMsNDUuMDUwMTMzNCAzNjEuNjQxNzkzLDQ0LjQ5MjAwMDEgQzM2MS4xMjY1OTMsNDMuOTMzODY2OCAzNjAuNTg5OTI2LDQzLjY1NDgwMDEgMzYwLjAzMTc5Myw0My42NTQ4MDAxIEwzNjAuMDMxNzkzLDQzLjY1NDgwMDEgTDM0NC41NzU3OTMsNDMuNjU0ODAwMSBDMzQzLjg0NTkyNyw0My42NTQ4MDAxIDM0Mi45NjU3OTMsNDMuMjA0MDAwMSAzNDEuOTM1MzkzLDQyLjMwMjQwMDEgQzM0MC45MDQ5OTMsNDEuNDAwODAwMiAzNDAuMzg5NzkzLDQwLjYwNjUzMzUgMzQwLjM4OTc5MywzOS45MTk2MDAyIEwzNDAuMzg5NzkzLDM5LjkxOTYwMDIgTDM0MC4zODk3OTMsMzcuMzQzNjAwMiBMMzU5LjU4MDk5MywzNy4zNDM2MDAyIEMzNjAuMTM5MTI2LDM3LjM0MzYwMDIgMzYwLjc1MDkyNiwzNy4xNTA0MDAyIDM2MS40MTYzOTMsMzYuNzY0MDAwMyBDMzYyLjA4MTg2LDM2LjM3NzYwMDMgMzYyLjQxNDU5MywzNi4wMTI2NjY5IDM2Mi40MTQ1OTMsMzUuNjY5MjAwMyBMMzYyLjQxNDU5MywzNS42NjkyMDAzIEwzNjIuNDE0NTkzLDI2LjkxMDgwMDUgQzM2Mi40MTQ1OTMsMjQuODA3MDY3MiAzNjEuNDM3ODYsMjIuNzk5OTMzOSAzNTkuNDg0MzkzLDIwLjg4OTQwMDYgQzM1Ny41MzA5MjYsMTguOTc4ODY3MyAzNTUuNjMxMTI2LDE4LjAyMzYwMDYgMzUzLjc4NDk5MywxOC4wMjM2MDA2IEwzNTMuNzg0OTkzLDE4LjAyMzYwMDYgTDM0Mi43NzI1OTMsMTguMDIzNjAwNiBDMzQxLjI2OTkyNywxOC4wMjM2MDA2IDMzOS41NTI1OTMsMTguOTY4MTM0IDMzNy42MjA1OTMsMjAuODU3MjAwNiBDMzM1LjY4ODU5MywyMi43NDYyNjcyIDMzNC43MjI1OTMsMjQuNDIwNjY3MiAzMzQuNzIyNTkzLDI1Ljg4MDQwMDUgTDMzNC43MjI1OTMsMjUuODgwNDAwNSBMMzM0LjcyMjU5Myw0MC4xMTI4MDAyIEMzMzQuNzIyNTkzLDQxLjg3MzA2NjggMzM1LjU5MTk5Myw0My43OTQzMzM0IDMzNy4zMzA3OTMsNDUuODc2NjAwMSBDMzM5LjA2OTU5Myw0Ny45NTg4NjY3IDM0MC42OTAzMjcsNDkgMzQyLjE5Mjk5Myw0OSBMMzQyLjE5Mjk5Myw0OSBMMzYwLjE2MDU5Myw0OSBaIE0zNTcuNTU0MTkzLDMyLjE5MTYwMDMgTDM0MS4zODk3OTMsMzIuMTkxNjAwMyBMMzQxLjM4OTc5MywyNi4zMzEyMDA1IEMzNDEuMzg5NzkzLDI1LjczMDEzMzggMzQxLjc4NjkyNywyNS4xMTgzMzM4IDM0Mi41ODExOTMsMjQuNDk1ODAwNSBDMzQzLjM3NTQ2LDIzLjg3MzI2NzIgMzQ0LjIyMzM5MywyMy41NjIwMDA1IDM0NS4xMjQ5OTMsMjMuNTYyMDAwNSBMMzQ1LjEyNDk5MywyMy41NjIwMDA1IEwzNTQuMDc2NTkzLDIzLjU2MjAwMDUgQzM1NC44NDkzOTMsMjMuNTYyMDAwNSAzNTUuNjIyMTkzLDIzLjkyNjkzMzkgMzU2LjM5NDk5MywyNC42NTY4MDA1IEMzNTcuMTY3NzkzLDI1LjM4NjY2NzIgMzU3LjU1NDE5MywyNi4xMzgwMDA1IDM1Ny41NTQxOTMsMjYuOTEwODAwNSBMMzU3LjU1NDE5MywyNi45MTA4MDA1IEwzNTcuNTU0MTkzLDMyLjE5MTYwMDMgWiBNMzg0LjgyNTc5Miw0OSBDMzg2LjI4NTUyNiw0OSAzODcuNjM3OTI2LDQ4LjU5MjEzMzMgMzg4Ljg4Mjk5Miw0Ny43NzY0IEMzODkuMjY5MzkyLDQ3LjUxODggMzkwLjM0MjcyNiw0Ni42MTcyIDM5Mi4xMDI5OTIsNDUuMDcxNjAwMSBMMzkyLjEwMjk5Miw0NS4wNzE2MDAxIEwzOTIuMTAyOTkyLDQ3LjE5NjggQzM5Mi4xMDI5OTIsNDcuNzU0OTMzNCAzOTIuMzE3NjU5LDQ4LjE5NSAzOTIuNzQ2OTkyLDQ4LjUxNyBDMzkzLjE3NjMyNiw0OC44MzkgMzkzLjcxMjk5Miw0OSAzOTQuMzU2OTkyLDQ5IEMzOTYuMjg4OTkyLDQ5IDM5Ny4yNTQ5OTIsNDguMzk4OTMzMyAzOTcuMjU0OTkyLDQ3LjE5NjggTDM5Ny4yNTQ5OTIsNDcuMTk2OCBMMzk3LjI1NDk5Miw3LjUyNjQwMDg2IEMzOTcuMjU0OTkyLDYuOTY4MjY3NTQgMzk3LjAwODEyNiw2LjU4MTg2NzU1IDM5Ni41MTQzOTIsNi4zNjcyMDA4OCBDMzk2LjAyMDY1OSw2LjE1MjUzNDIyIDM5NS40MzAzMjYsNi4wNDUyMDA4OSAzOTQuNzQzMzkyLDYuMDQ1MjAwODkgQzM5NC4wNTY0NTksNi4wNDUyMDA4OSAzOTMuNDQ0NjU5LDYuMjM4NDAwODkgMzkyLjkwNzk5Miw2LjYyNDgwMDg4IEMzOTIuMzcxMzI2LDcuMDExMjAwODcgMzkyLjEwMjk5Miw3LjQ2MjAwMDg2IDM5Mi4xMDI5OTIsNy45NzcyMDA4NSBMMzkyLjEwMjk5Miw3Ljk3NzIwMDg1IEwzOTIuMTAyOTkyLDIwLjY2NDAwMDYgQzM5MS4yNDQzMjYsMjAuMTA1ODY3MyAzOTAuMzUzNDU5LDE5LjUyNjI2NzMgMzg5LjQzMDM5MiwxOC45MjUyMDA2IEMzODguNTA3MzI2LDE4LjMyNDEzNCAzODcuNTMwNTkyLDE4LjAyMzYwMDYgMzg2LjUwMDE5MiwxOC4wMjM2MDA2IEwzODYuNTAwMTkyLDE4LjAyMzYwMDYgTDM3Ny40MTk3OTMsMTguMDIzNjAwNiBDMzc2LjEzMTc5MywxOC4wMjM2MDA2IDM3NC41MDAzMjYsMTguOTAzNzM0IDM3Mi41MjUzOTMsMjAuNjY0MDAwNiBDMzcwLjU1MDQ1OSwyMi40MjQyNjcyIDM2OS41NjI5OTMsMjMuOTA1NDY3MiAzNjkuNTYyOTkzLDI1LjEwNzYwMDUgTDM2OS41NjI5OTMsMjUuMTA3NjAwNSBMMzY5LjU2Mjk5Myw0MS4xNDMyMDAyIEMzNjkuNTYyOTkzLDQyLjQ3NDEzMzUgMzcwLjY4OTk5Myw0NC4xMTYzMzM0IDM3Mi45NDM5OTMsNDYuMDY5ODAwMSBDMzc1LjE5Nzk5Myw0OC4wMjMyNjY3IDM3Ni45Njg5OTMsNDkgMzc4LjI1Njk5Myw0OSBMMzc4LjI1Njk5Myw0OSBMMzg0LjgyNTc5Miw0OSBaIE0zODMuMzc4NTkzLDQzLjg0ODAwMDEgQzM4Mi4yNjIzMjYsNDMuODQ4MDAwMSAzODAuODAyNTkzLDQzLjQ2MTYwMDEgMzc4Ljk5OTM5Myw0Mi42ODg4MDAxIEMzNzYuODk1NjU5LDQxLjc4NzIwMDEgMzc1Ljg0Mzc5Myw0MC44MjEyMDAyIDM3NS44NDM3OTMsMzkuNzkwODAwMiBMMzc1Ljg0Mzc5MywzOS43OTA4MDAyIEwzNzUuODQzNzkzLDI3LjM2MTYwMDQgQzM3NS44NDM3OTMsMjYuNjMxNzMzOCAzNzYuMTAxMzkzLDI1Ljg0ODIwMDUgMzc2LjYxNjU5MywyNS4wMTEwMDA1IEMzNzcuMTMxNzkzLDI0LjE3MzgwMDUgMzc3Ljc3NTc5MywyMy43NTUyMDA1IDM3OC41NDg1OTMsMjMuNzU1MjAwNSBMMzc4LjU0ODU5MywyMy43NTUyMDA1IEwzODcuNTAwMTkyLDIzLjc1NTIwMDUgQzM4OC40ODc2NTksMjMuNzU1MjAwNSAzODkuNDc1MTI2LDI0LjIzODIwMDUgMzkwLjQ2MjU5MiwyNS4yMDQyMDA1IEMzOTEuNDUwMDU5LDI2LjE3MDIwMDUgMzkyLjI0NDMyNiwyNy40Njg5MzM4IDM5Mi44NDUzOTIsMjkuMTAwNDAwNCBMMzkyLjg0NTM5MiwyOS4xMDA0MDA0IEwzOTIuODQ1MzkyLDM3Ljk4NzYwMDIgQzM5MS45MDA4NTksMzkuMjc1NjAwMiAzOTAuNjc3MjU5LDQwLjQ3NzczMzUgMzg5LjE3NDU5Miw0MS41OTQwMDAyIEMzODcuMTEzNzkyLDQzLjA5NjY2NjggMzg1LjE4MTc5Miw0My44NDgwMDAxIDM4My4zNzg1OTMsNDMuODQ4MDAwMSBaIE00MjcuMDE5MzkyLDQ5LjIwODIgTDQyNy4yMjc1OTIsNDcuMjY1IEw0MjMuMTMyOTkyLDQ3LjA1NjggQzQyMS4zMjg1OTIsNDYuOTg3NCA0MjAuNjM0NTkyLDQ2LjQzMjIgNDIwLjYzNDU5Miw0NC45NzQ4IEM0MjAuNjM0NTkyLDQ0LjI4MDggNDIwLjYzNDU5Miw0NC4wMDMyIDQyMC45MTIxOTIsNDIuNTQ1OCBMNDI3LjQzNTc5Miw0LjE2NzYgTDQzMi41MDE5OTIsNC4xNjc2IEM0MzcuOTE1MTkyLDQuMTY3NiA0NDAuNDEzNTkyLDQuNTE0NiA0NDAuNjIxNzkyLDUuMzQ3NCBDNDQwLjgyOTk5Miw1LjkwMjYgNDQwLjk2ODc5Miw3LjIyMTIgNDQwLjg5OTM5Miw3LjkxNTIgTDQ0MC42MjE3OTIsMTIuMzU2OCBMNDQyLjU2NDk5MiwxMi4zNTY4IEw0NDQuNDM4NzkyLDAuOTc1MiBDNDM3LjkxNTE5MiwxLjExNCA0MzEuMzkxNTkyLDEuMTgzNCA0MjQuODY3OTkyLDEuMTgzNCBDNDE4LjM0NDM5MiwxLjE4MzQgNDExLjgyMDc5MiwxLjExNCA0MDUuMjk3MTkyLDAuOTc1MiBMNDA0LjA0Nzk5MiwxMi4zNTY4IEw0MDYuMDYwNTkyLDEyLjM1NjggTDQwNy4xMDE1OTIsOC4xOTI4IEM0MDcuNDQ4NTkyLDYuNjY2IDQwNy45MzQzOTIsNS41NTU2IDQwOC4zNTA3OTIsNS4wNjk4IEM0MDguNzY3MTkyLDQuNTg0IDQxMS40MDQzOTIsNC4xNjc2IDQxMy45NzIxOTIsNC4xNjc2IEw0MjEuNzQ0OTkyLDQuMTY3NiBMNDE1Ljc3NjU5Miw0MC4zMjUgQzQxNC43MzU1OTIsNDYuNjQwNCA0MTQuNTI3MzkyLDQ2LjkxOCA0MTEuNzUxMzkyLDQ3LjA1NjggTDQwOC4yMTE5OTIsNDcuMjY1IEw0MDcuOTM0MzkyLDQ5LjIwODIgQzQxMS4xOTYxOTIsNDkuMDY5NCA0MTQuNTI3MzkyLDQ5IDQxNy43ODkxOTIsNDkgQzQyMC45MTIxOTIsNDkgNDIzLjk2NTc5Miw0OS4wNjk0IDQyNy4wMTkzOTIsNDkuMjA4MiBaIE00NDQuMjI0NTkyLDQ5Ljc2MzQgQzQ0OC4xODAzOTIsNDkuNzYzNCA0NTEuOTk3MzkyLDQ3LjgyMDIgNDU4LjQ1MTU5Miw0Mi42MTUyIEw0NTcuODk2MzkyLDQxLjI5NjYgTDQ1Ni4yMzA3OTIsNDIuNDc2NCBDNDUyLjU1MjU5Miw0NS4xMTM2IDQ0OS4yMjEzOTIsNDYuNTAxNiA0NDYuNzIyOTkyLDQ2LjUwMTYgQzQ0My4zOTE3OTIsNDYuNTAxNiA0NDEuNDQ4NTkyLDQzLjkzMzggNDQxLjQ0ODU5MiwzOS43MDA0IEM0NDEuNDQ4NTkyLDM3Ljg5NiA0NDEuNTg3MzkyLDM2LjE2MSA0NDIuMDAzNzkyLDM0LjE0ODQgTDQ0Ny42OTQ1OTIsMzIuNzYwNCBDNDQ4Ljg3NDM5MiwzMi40ODI4IDQ1MC42Nzg3OTIsMzEuNzg4OCA0NTIuNDgzMTkyLDMxLjAyNTQgQzQ1OC4zODIxOTIsMjguMzg4MiA0NjEuMDg4NzkyLDI1LjI2NTIgNDYxLjA4ODc5MiwyMC45NjI0IEM0NjEuMDg4NzkyLDE3LjcwMDYgNDU4Ljc5ODU5MiwxNS41NDkyIDQ1NS4yNTkxOTIsMTUuNTQ5MiBDNDUwLjc0ODE5MiwxNS41NDkyIDQ0My4xODM1OTIsMjAuMTk5IDQ0MC40MDc1OTIsMjQuNjQwNiBDNDM4LjMyNTU5MiwyOC4wNDEyIDQzNi4xNzQxOTIsMzYuMzY5MiA0MzYuMTc0MTkyLDQxLjIyNzIgQzQzNi4xNzQxOTIsNDYuNTcxIDQzOS4yMjc3OTIsNDkuNzYzNCA0NDQuMjI0NTkyLDQ5Ljc2MzQgWiBNNDQyLjM1MDc5MiwzMi41NTIyIEw0NDIuOTc1MzkyLDI5Ljk4NDQgQzQ0NC4wODU3OTIsMjUuMzM0NiA0NDUuNDczNzkyLDIyLjM1MDQgNDQ3LjM0NzU5MiwyMC42MTU0IEM0NDguNjY2MTkyLDE5LjM2NjIgNDUwLjg4Njk5MiwxOC40NjQgNDUyLjYyMTk5MiwxOC40NjQgQzQ1NC42MzQ1OTIsMTguNDY0IDQ1NS45NTMxOTIsMTkuODUyIDQ1NS45NTMxOTIsMjIuMDcyOCBDNDU1Ljk1MzE5MiwyNS4xMjY0IDQ1My41MjQxOTIsMjguMzg4MiA0NDkuOTE1MzkyLDMwLjEyMzIgQzQ0Ny45NzIxOTIsMzEuMDI1NCA0NDUuNDczNzkyLDMxLjg1ODIgNDQyLjM1MDc5MiwzMi41NTIyIFogTTQ4Mi41MjczOTIsNDkuNzYzNCBDNDg0LjA1NDE5Miw0OS43NjM0IDQ4Ni4yNzQ5OTIsNDguNTgzNiA0ODguNDk1NzkyLDQ2LjU3MSBMNDkxLjg5NjM5Miw0My41MTc0IEw0OTEuMjcxNzkyLDQyLjE5ODggQzQ4OC43NzMzOTIsNDQuMjgwOCA0ODcuMDM4MzkyLDQ1LjMyMTggNDg1LjkyNzk5Miw0NS4zMjE4IEM0ODQuODg2OTkyLDQ1LjMyMTggNDgzLjk4NDc5Miw0NC42Mjc4IDQ4My4yOTA3OTIsNDMuMjM5OCBDNDgyLjY2NjE5Miw0MS45MjEyIDQ4MS45MDI3OTIsMzkuMzUzNCA0ODEuNTU1NzkyLDM3LjM0MDggTDQ4MC4zMDY1OTIsMzAuMzMxNCBMNDgyLjczNTU5MiwyNi45MzA4IEM0ODUuOTk3MzkyLDIyLjQxOTggNDg3Ljg3MTE5MiwyMC44MjM2IDQ5MC4wMjI1OTIsMjAuODIzNiBDNDkxLjEzMjk5MiwyMC44MjM2IDQ5MS45NjU3OTIsMjEuMzc4OCA0OTIuMzEyNzkyLDIyLjQxOTggTDQ5My4yODQzOTIsMjIuMTQyMiBMNDk0LjMyNTM5MiwxNi4yNDMyIEM0OTMuNDkyNTkyLDE1Ljc1NzQgNDkyLjg2Nzk5MiwxNS41NDkyIDQ5Mi4yNDMzOTIsMTUuNTQ5MiBDNDg5LjQ2NzM5MiwxNS41NDkyIDQ4Ni42OTEzOTIsMTguMDQ3NiA0ODIuMzg4NTkyLDI0LjQzMjQgTDQ3OS44MjA3OTIsMjguMjQ5NCBMNDc5LjQwNDM5MiwyNC45MTgyIEM0NzguNTcxNTkyLDE4LjA0NzYgNDc2LjY5Nzc5MiwxNS41NDkyIDQ3Mi42MDMxOTIsMTUuNTQ5MiBDNDcwLjc5ODc5MiwxNS41NDkyIDQ2OS4yNzE5OTIsMTYuMTA0NCA0NjguNjQ3MzkyLDE3LjAwNjYgTDQ2NC42MjIxOTIsMjIuNzY2OCBMNDY1LjgwMTk5MiwyMy40NjA4IEM0NjcuODgzOTkyLDIxLjEwMTIgNDY5LjI3MTk5MiwyMC4xMjk2IDQ3MC41OTA1OTIsMjAuMTI5NiBDNDcyLjg4MDc5MiwyMC4xMjk2IDQ3NC40MDc1OTIsMjIuOTc1IDQ3NS41ODczOTIsMjkuNzc2MiBMNDc2LjM1MDc5MiwzNC4wNzkgTDQ3My41NzQ3OTIsMzguMzgxOCBDNDcwLjU5MDU5Miw0My4wMzE2IDQ2OC4yMzA5OTIsNDUuMjUyNCA0NjYuMjg3NzkyLDQ1LjI1MjQgQzQ2NS4yNDY3OTIsNDUuMjUyNCA0NjQuNDgzMzkyLDQ0Ljk3NDggNDY0LjM0NDU5Miw0NC42Mjc4IEw0NjMuNTgxMTkyLDQyLjY4NDYgTDQ2Mi4xOTMxOTIsNDIuODkyOCBDNDYyLjE5MzE5Miw0NC4yODA4IDQ2Mi4wNTQzOTIsNDUuMTgzIDQ2MS42Mzc5OTIsNDcuNDAzOCBDNDYxLjQ5OTE5Miw0OC4yMzY2IDQ2MS40Mjk3OTIsNDguNDQ0OCA0NjEuMzYwMzkyLDQ4LjkzMDYgQzQ2Mi40MDEzOTIsNDkuNDg1OCA0NjMuNTExNzkyLDQ5Ljc2MzQgNDY0LjM0NDU5Miw0OS43NjM0IEM0NjYuNjM0NzkyLDQ5Ljc2MzQgNDY5LjM0MTM5Miw0Ny43NTA4IDQ3MS40OTI3OTIsNDQuNDg5IEw0NzYuNzY3MTkyLDM2LjM2OTIgTDQ3Ny41MzA1OTIsNDEuMTU3OCBDNDc4LjUwMjE5Miw0Ny4wNTY4IDQ4MC4wMjg5OTIsNDkuNzYzNCA0ODIuNTI3MzkyLDQ5Ljc2MzQgWiBNNTAwLjcwNDE5Miw0OS42MjQ2IEM1MDMuMTMzMTkyLDQ5LjYyNDYgNTA1LjQ5Mjc5Miw0OC4yMzY2IDUxMC45NzUzOTIsNDMuODY0NCBDNTEyLjIyNDU5Miw0Mi44OTI4IDUxMS44MDgxOTIsNDMuMTcwNCA1MTMuMTI2NzkyLDQyLjEyOTQgTDUxMi40MzI3OTIsNDAuODgwMiBMNTA5LjMwOTc5Miw0My4wMzE2IEM1MDcuMjI3NzkyLDQ0LjQ4OSA1MDUuOTA5MTkyLDQ1LjExMzYgNTA1LjA3NjM5Miw0NS4xMTM2IEM1MDQuNTIxMTkyLDQ1LjExMzYgNTA0LjE3NDE5Miw0NC41NTg0IDUwNC4xNzQxOTIsNDMuNzI1NiBDNTA0LjE3NDE5Miw0MS45MjEyIDUwNS4wMDY5OTIsMzYuNTA4IDUwNy4xNTgzOTIsMjYuMjM2OCBMNTA4LjA2MDU5MiwyMS45MzQgTDUxNS40ODYzOTIsMjEuOTM0IEw1MTYuMjQ5NzkyLDE4LjQ2NCBDNTEzLjYxMjU5MiwxOC43NDE2IDUxMS4yNTI5OTIsMTguODgwNCA1MDguNjE1NzkyLDE4Ljg4MDQgQzUwOS43MjYxOTIsMTIuMzU2OCA1MTAuNDg5NTkyLDguOTU2MiA1MTEuNzM4NzkyLDUuMjA4NiBMNTEwLjk3NTM5Miw0LjE2NzYgQzUwOS41ODczOTIsNS4wMDA0IDUwNy43MTM1OTIsNS44MzMyIDUwNS41NjIxOTIsNi42NjYgTDUwMy44MjcxOTIsMTguNDY0IEM1MDAuNzczNTkyLDE5LjkyMTQgNDk4Ljk2OTE5MiwyMC42ODQ4IDQ5Ny43MTk5OTIsMjEuMDMxOCBMNDk3LjU4MTE5MiwyMS45MzQgTDUwMy40MTA3OTIsMjEuOTM0IEw0OTkuNTI0MzkyLDQxLjU3NDIgQzQ5OS4xNzczOTIsNDMuMzA5MiA0OTguNjIyMTkyLDQ1LjA0NDIgNDk4LjYyMjE5Miw0Ni44NDg2IEM0OTguNjIyMTkyLDQ4LjU4MzYgNDk5LjM4NTU5Miw0OS42MjQ2IDUwMC43MDQxOTIsNDkuNjI0NiBaIi8+JiN4YTsgICAgPC9nPiYjeGE7PC9zdmc+;" parent="zWHwjysgA1_sXkl13r-_-84" vertex="1">
          <mxGeometry x="16.599999999999994" y="10" width="206.8" height="20" as="geometry" />
        </mxCell>
        <mxCell id="aZOu54mgNPIQ95392Zl_-19" value="" style="group" parent="1" vertex="1" connectable="0">
          <mxGeometry x="170" y="230" width="258" height="88" as="geometry" />
        </mxCell>
        <mxCell id="aZOu54mgNPIQ95392Zl_-10" value="" style="rounded=1;whiteSpace=wrap;html=1;fillColor=#ffffff;align=left;strokeWidth=3;fontColor=#F9895C;gradientColor=#ffffff;strokeColor=#545A5E;fontStyle=0" parent="aZOu54mgNPIQ95392Zl_-19" vertex="1">
          <mxGeometry x="18" y="18" width="240" height="70" as="geometry" />
        </mxCell>
        <mxCell id="aZOu54mgNPIQ95392Zl_-13" value="" style="rounded=1;whiteSpace=wrap;html=1;fillColor=#ffffff;align=left;strokeWidth=3;fontColor=#F9895C;gradientColor=#ffffff;strokeColor=#545A5E;fontStyle=0" parent="aZOu54mgNPIQ95392Zl_-19" vertex="1">
          <mxGeometry x="9" y="9" width="240" height="70" as="geometry" />
        </mxCell>
        <mxCell id="aZOu54mgNPIQ95392Zl_-14" value="" style="rounded=1;whiteSpace=wrap;html=1;fillColor=#ffffff;align=left;strokeWidth=3;fontColor=#F9895C;gradientColor=#ffffff;strokeColor=#545A5E;fontStyle=0" parent="aZOu54mgNPIQ95392Zl_-19" vertex="1">
          <mxGeometry width="240" height="70" as="geometry" />
        </mxCell>
        <mxCell id="aZOu54mgNPIQ95392Zl_-15" value="&lt;h3&gt;&lt;span style=&quot;font-weight: normal&quot;&gt;&lt;font style=&quot;font-size: 19px&quot;&gt;MARKDOWN FILE&lt;/font&gt;&lt;/span&gt;&lt;/h3&gt;" style="text;html=1;strokeColor=none;fillColor=none;align=center;verticalAlign=middle;whiteSpace=wrap;rounded=0;labelBackgroundColor=none;fontFamily=Quantum;fontColor=#F9895C;fontStyle=0" parent="aZOu54mgNPIQ95392Zl_-19" vertex="1">
          <mxGeometry x="93.75" y="27.920000000000016" width="140" height="20" as="geometry" />
        </mxCell>
        <mxCell id="aZOu54mgNPIQ95392Zl_-17" value="" style="shape=image;verticalLabelPosition=bottom;labelBackgroundColor=default;verticalAlign=top;aspect=fixed;imageAspect=0;image=data:image/svg+xml,PHN2ZyB4bWxucz0iaHR0cDovL3d3dy53My5vcmcvMjAwMC9zdmciIHZpZXdCb3g9IjAgMCAyMDggMTI4IiBoZWlnaHQ9IjEyOCIgd2lkdGg9IjIwOCI+PHJlY3QgZmlsbD0ibm9uZSIgc3Ryb2tlLXdpZHRoPSIxMCIgc3Ryb2tlPSIjMDAwIiByeT0iMTAiIHk9IjUiIHg9IjUiIGhlaWdodD0iMTE4IiB3aWR0aD0iMTk4Ii8+PHBhdGggZD0iTTMwIDk4VjMwaDIwbDIwIDI1IDIwLTI1aDIwdjY4SDkwVjU5TDcwIDg0IDUwIDU5djM5em0xMjUgMGwtMzAtMzNoMjBWMzBoMjB2MzVoMjB6Ii8+PC9zdmc+;" parent="aZOu54mgNPIQ95392Zl_-19" vertex="1">
          <mxGeometry x="9" y="9.850000000000023" width="84.75" height="52.15" as="geometry" />
        </mxCell>
        <mxCell id="aZOu54mgNPIQ95392Zl_-24" value="&lt;font face=&quot;Quantum&quot; color=&quot;#65bcd8&quot; style=&quot;font-size: 19px&quot;&gt;DOCS_SRC/&lt;/font&gt;" style="rounded=0;whiteSpace=wrap;html=1;fillColor=#FFFFFF;strokeColor=none;fontColor=#F8D643;fontStyle=0" parent="1" vertex="1">
          <mxGeometry x="190" y="18" width="175.5" height="34.21" as="geometry" />
        </mxCell>
        <mxCell id="aZOu54mgNPIQ95392Zl_-30" style="edgeStyle=orthogonalEdgeStyle;rounded=1;orthogonalLoop=1;jettySize=auto;html=1;strokeColor=#545A5E;strokeWidth=3;fontSize=18;fontColor=#F9895C;entryX=0;entryY=0.5;entryDx=0;entryDy=0;exitX=1;exitY=0.5;exitDx=0;exitDy=0;" parent="1" source="aZOu54mgNPIQ95392Zl_-10" target="zWHwjysgA1_sXkl13r-_-122" edge="1">
          <mxGeometry relative="1" as="geometry">
            <mxPoint x="450" y="283" as="sourcePoint" />
            <mxPoint x="690" y="335" as="targetPoint" />
            <Array as="points" />
          </mxGeometry>
        </mxCell>
        <mxCell id="aZOu54mgNPIQ95392Zl_-33" style="edgeStyle=orthogonalEdgeStyle;rounded=1;orthogonalLoop=1;jettySize=auto;html=1;strokeColor=#545A5E;strokeWidth=3;fontSize=18;fontColor=#F9895C;entryX=0;entryY=0.25;entryDx=0;entryDy=0;exitX=1;exitY=0.5;exitDx=0;exitDy=0;" parent="1" source="aZOu54mgNPIQ95392Zl_-7" target="Vql9rj5d_moiOUUVPlcb-132" edge="1">
          <mxGeometry relative="1" as="geometry">
            <mxPoint x="470" y="153" as="sourcePoint" />
            <mxPoint x="690" y="328" as="targetPoint" />
            <Array as="points" />
          </mxGeometry>
        </mxCell>
        <mxCell id="aZOu54mgNPIQ95392Zl_-34" value="" style="group" parent="1" vertex="1" connectable="0">
          <mxGeometry x="1090" y="148" width="258" height="90" as="geometry" />
        </mxCell>
        <mxCell id="aZOu54mgNPIQ95392Zl_-35" value="" style="rounded=1;whiteSpace=wrap;html=1;fillColor=#ffffff;align=left;strokeWidth=3;fontColor=#F9895C;gradientColor=#ffffff;strokeColor=#545A5E;fontStyle=0" parent="aZOu54mgNPIQ95392Zl_-34" vertex="1">
          <mxGeometry x="18" y="18" width="240" height="70" as="geometry" />
        </mxCell>
        <mxCell id="aZOu54mgNPIQ95392Zl_-36" value="" style="group;fontStyle=0" parent="aZOu54mgNPIQ95392Zl_-34" vertex="1" connectable="0">
          <mxGeometry width="245" height="90" as="geometry" />
        </mxCell>
        <mxCell id="aZOu54mgNPIQ95392Zl_-37" value="" style="group;fontStyle=0" parent="aZOu54mgNPIQ95392Zl_-36" vertex="1" connectable="0">
          <mxGeometry x="9" y="9" width="240" height="80" as="geometry" />
        </mxCell>
        <mxCell id="aZOu54mgNPIQ95392Zl_-38" value="" style="rounded=1;whiteSpace=wrap;html=1;fillColor=#ffffff;align=left;strokeWidth=3;fontColor=#F9895C;gradientColor=#ffffff;strokeColor=#545A5E;fontStyle=0" parent="aZOu54mgNPIQ95392Zl_-37" vertex="1">
          <mxGeometry width="240" height="70" as="geometry" />
        </mxCell>
        <mxCell id="aZOu54mgNPIQ95392Zl_-39" value="" style="rounded=1;whiteSpace=wrap;html=1;fillColor=#ffffff;align=left;strokeWidth=3;fontColor=#F9895C;gradientColor=#ffffff;strokeColor=#545A5E;fontStyle=0" parent="aZOu54mgNPIQ95392Zl_-36" vertex="1">
          <mxGeometry width="240" height="70" as="geometry" />
        </mxCell>
        <mxCell id="aZOu54mgNPIQ95392Zl_-40" value="&lt;h3&gt;&lt;span style=&quot;font-weight: normal&quot;&gt;&lt;font style=&quot;font-size: 19px&quot;&gt;HTML PAGE&lt;/font&gt;&lt;/span&gt;&lt;/h3&gt;" style="text;html=1;strokeColor=none;fillColor=none;align=center;verticalAlign=middle;whiteSpace=wrap;rounded=0;labelBackgroundColor=none;fontFamily=Quantum;fontColor=#F9895C;fontStyle=0" parent="aZOu54mgNPIQ95392Zl_-36" vertex="1">
          <mxGeometry x="100" y="25" width="129" height="20" as="geometry" />
        </mxCell>
        <mxCell id="aZOu54mgNPIQ95392Zl_-44" value="" style="shape=image;verticalLabelPosition=bottom;labelBackgroundColor=default;verticalAlign=top;aspect=fixed;imageAspect=0;image=data:image/svg+xml,PHN2ZyB4bWxucz0iaHR0cDovL3d3dy53My5vcmcvMjAwMC9zdmciIHZpZXdCb3g9IjAgMCA1MTIgNTEyIj4mI3hhOwk8dGl0bGU+SFRNTDUgTG9nbzwvdGl0bGU+JiN4YTsJPHBhdGggZD0iTTEwOC40IDBoMjN2MjIuOGgyMS4yVjBoMjN2NjloLTIzVjQ2aC0yMXYyM2gtMjMuMk0yMDYgMjNoLTIwLjNWMGg2My43djIzSDIyOXY0NmgtMjNNMjU5LjUgMGgyNC4xbDE0LjggMjQuM0wzMTMuMiAwaDI0LjF2NjloLTIzVjM0LjhsLTE2LjEgMjQuOGwtMTYuMS0yNC44djM0LjJoLTIyLjZNMzQ4LjcgMGgyM3Y0Ni4yaDMyLjZWNjloLTU1LjYiLz4mI3hhOwk8cGF0aCBkPSJNMTA3LjYgNDcxbC0zMy0zNzAuNGgzNjIuOGwtMzMgMzcwLjJMMjU1LjcgNTEyIiBmaWxsPSIjZTQ0ZDI2Ii8+JiN4YTsJPHBhdGggZD0iTTI1NiA0ODAuNVYxMzFINDA0LjNMMzc2IDQ0NyIgZmlsbD0iI2YxNjUyOSIvPiYjeGE7CTxwYXRoIGQ9Ik0xNDIgMTc2LjNoMTE0djQ1LjRoLTY0LjJsNC4yIDQ2LjVoNjB2NDUuM0gxNTQuNE0xNTYuNCAzMzYuM0gyMDJsMy4yIDM2LjMgNTAuOCAxMy42djQ3LjRsLTkzLjItMjYiIGZpbGw9IiNlYmViZWIiLz4mI3hhOwk8cGF0aCBkPSJNMzY5LjYgMTc2LjNIMjU1Ljh2NDUuNGgxMDkuNk0zNjEuMyAyNjguMkgyNTUuOHY0NS40aDU2bC01LjMgNTktNTAuNyAxMy42djQ3LjJsOTMtMjUuOCIgZmlsbD0iI2ZmZiIvPiYjeGE7PC9zdmc+;" parent="aZOu54mgNPIQ95392Zl_-36" vertex="1">
          <mxGeometry x="20" y="6" width="59" height="59" as="geometry" />
        </mxCell>
        <mxCell id="aZOu54mgNPIQ95392Zl_-43" value="&lt;font face=&quot;Quantum&quot; color=&quot;#65bcd8&quot; style=&quot;font-size: 19px&quot;&gt;DOCS/&lt;/font&gt;" style="rounded=0;whiteSpace=wrap;html=1;fillColor=#FFFFFF;strokeColor=none;fontColor=#F8D643;fontStyle=0" parent="1" vertex="1">
          <mxGeometry x="1090" y="24" width="100" height="34.21" as="geometry" />
        </mxCell>
        <mxCell id="aZOu54mgNPIQ95392Zl_-45" style="edgeStyle=orthogonalEdgeStyle;rounded=1;orthogonalLoop=1;jettySize=auto;html=1;strokeColor=#545A5E;strokeWidth=3;fontSize=18;fontColor=#F9895C;entryX=0;entryY=0.5;entryDx=0;entryDy=0;exitX=1;exitY=0.5;exitDx=0;exitDy=0;" parent="1" source="Vql9rj5d_moiOUUVPlcb-132" target="aZOu54mgNPIQ95392Zl_-39" edge="1">
          <mxGeometry relative="1" as="geometry">
            <mxPoint x="438" y="163" as="sourcePoint" />
            <mxPoint x="830" y="163" as="targetPoint" />
            <Array as="points" />
          </mxGeometry>
        </mxCell>
      </root>
    </mxGraphModel>
  </diagram>
</mxfile>
